<?xml version="1.0" standalone="no"?>
<!DOCTYPE svg PUBLIC "-//W3C//DTD SVG 20010904//EN"
 "http://www.w3.org/TR/2001/REC-SVG-20010904/DTD/svg10.dtd">
<svg version="1.0" xmlns="http://www.w3.org/2000/svg"
 width="880.000000pt" height="804.000000pt" viewBox="0 0 880.000000 804.000000"
 preserveAspectRatio="xMidYMid meet">

<g transform="translate(0.000000,804.000000) scale(0.100000,-0.100000)"
fill="#000000" stroke="none">
<path d="M2232 7983 c-6 -10 -35 -67 -67 -128 -32 -60 -81 -155 -110 -210 -29
-55 -90 -172 -135 -260 -45 -88 -86 -164 -90 -170 -4 -5 -45 -82 -90 -170 -45
-88 -105 -203 -133 -255 -28 -52 -72 -138 -99 -190 -27 -52 -72 -138 -99 -190
-28 -52 -88 -167 -134 -255 -46 -88 -106 -203 -133 -255 -28 -52 -73 -138
-100 -190 -27 -52 -74 -142 -104 -200 -31 -58 -85 -161 -120 -230 -36 -69 -85
-161 -108 -205 -24 -44 -69 -129 -100 -190 -31 -60 -82 -157 -112 -215 -31
-58 -87 -166 -126 -240 -38 -74 -82 -157 -97 -185 -55 -100 -115 -224 -115
-237 0 -12 59 -134 121 -248 67 -123 169 -323 169 -332 0 -4 -28 -43 -62 -86
-127 -160 -190 -269 -282 -494 -41 -99 -56 -149 -55 -180 1 -24 4 -34 6 -23
11 44 87 216 139 314 60 113 154 258 233 359 l49 63 24 -48 c12 -26 25 -50 28
-53 15 -15 39 -82 34 -95 -4 -9 0 -15 9 -15 8 0 25 -18 36 -41 l21 -40 -21
-30 -22 -31 33 4 c26 2 37 -3 53 -25 21 -27 21 -28 2 -64 -11 -20 -42 -60 -70
-88 -41 -43 -66 -58 -145 -88 -52 -20 -138 -45 -190 -56 -116 -23 -150 -36
-150 -56 0 -8 4 -15 10 -15 5 0 79 20 164 45 170 49 269 86 378 141 68 34 72
35 85 18 7 -10 13 -23 13 -29 0 -15 -173 -96 -265 -126 -38 -12 -71 -23 -73
-25 -8 -6 20 -44 33 -44 20 0 152 53 248 100 45 22 84 40 88 40 4 0 9 -9 12
-20 6 -24 -34 -50 -202 -131 l-104 -51 21 -21 22 -21 72 34 c39 19 105 54 146
78 42 23 77 42 78 42 2 0 10 -13 19 -29 l15 -29 -98 -60 c-53 -33 -109 -66
-124 -73 -33 -15 -35 -25 -7 -39 22 -12 76 14 190 91 l56 38 26 -40 26 -40
-67 -43 c-37 -23 -75 -47 -86 -53 -17 -9 -16 -11 13 -21 29 -10 37 -8 94 28
57 36 63 38 75 23 18 -25 16 -29 -25 -55 l-38 -23 52 -3 c44 -3 55 -7 73 -32
11 -15 20 -32 20 -37 0 -8 5 -18 59 -117 33 -60 31 -75 -9 -76 -8 0 -80 -7
-160 -16 -185 -19 -364 -19 -456 0 -149 32 -328 108 -402 172 l-43 37 3 -44
c3 -40 7 -45 53 -72 80 -48 232 -104 340 -127 144 -31 379 -37 560 -16 77 9
149 18 160 19 15 1 28 -12 51 -58 17 -33 64 -123 104 -200 41 -77 89 -169 108
-205 101 -195 144 -277 204 -390 36 -69 96 -183 134 -255 37 -71 89 -170 115
-220 26 -49 67 -128 90 -175 24 -47 55 -102 68 -123 20 -31 23 -42 13 -57 -9
-14 -8 -19 3 -24 8 -3 15 -12 15 -21 0 -8 6 -15 13 -15 14 0 32 -30 109 -180
l44 -85 2104 0 2103 0 25 45 c13 25 38 72 54 105 40 79 49 90 59 73 7 -10 15
-5 35 17 14 17 32 29 39 27 7 -1 15 6 19 15 3 10 9 24 12 31 3 7 -1 12 -10 12
-9 0 -21 11 -27 24 -10 20 -3 39 51 142 35 66 84 160 110 209 26 50 67 128 92
175 25 47 76 144 113 215 37 72 99 191 138 265 215 409 278 529 308 591 15 30
33 60 41 66 9 8 44 5 123 -8 148 -26 424 -35 548 -20 177 23 351 80 479 157
l58 35 0 50 0 49 -36 -40 c-66 -72 -242 -155 -409 -192 -60 -13 -128 -19 -205
-19 -131 0 -444 29 -512 48 -15 4 -16 7 -5 25 6 12 26 47 43 77 26 47 34 55
55 52 23 -3 24 -3 6 17 -18 20 -18 21 5 61 26 46 29 47 63 25 14 -9 39 -14 66
-12 l42 3 -57 39 c-56 39 -63 49 -47 75 7 11 23 5 78 -31 105 -69 101 -68 152
-52 9 3 -28 32 -87 70 -56 36 -102 70 -102 75 0 8 27 67 35 77 1 1 38 -22 81
-51 44 -30 105 -69 136 -86 52 -30 59 -31 84 -18 l26 14 -58 33 c-71 39 -244
150 -244 156 0 2 6 14 13 27 6 12 13 23 14 25 1 2 39 -19 85 -46 137 -83 257
-137 277 -125 9 6 16 15 16 22 0 6 -76 51 -170 100 -93 48 -171 94 -172 102
-2 8 1 20 6 28 7 11 20 7 67 -21 58 -34 213 -103 287 -129 36 -13 40 -12 53 6
8 10 14 22 14 25 0 3 -39 19 -87 34 -74 24 -245 103 -291 134 -10 7 -11 14 -1
36 7 14 15 25 18 24 3 -2 48 -25 99 -51 128 -66 216 -99 399 -152 180 -52 188
-53 174 -26 -11 19 -79 42 -184 60 -75 14 -255 85 -285 114 -13 12 -48 58 -78
102 l-55 81 17 39 16 39 14 -25 c8 -17 25 -29 45 -33 18 -3 34 -5 35 -3 2 2
-12 25 -31 52 -24 34 -33 55 -29 69 10 32 22 42 36 28 11 -11 58 -17 58 -8 0
3 -9 20 -20 39 -14 24 -19 43 -14 61 6 27 11 27 62 8 9 -3 8 6 -5 32 -16 35
-16 38 2 71 10 19 21 35 24 35 3 -1 38 -42 77 -93 176 -227 314 -481 380 -697
l23 -75 0 53 c1 42 -11 83 -60 205 -105 258 -175 381 -330 571 l-72 89 36 66
c19 36 61 116 93 176 31 61 76 147 100 193 24 46 44 91 44 100 0 18 -6 30
-235 467 -32 61 -83 157 -113 215 -30 58 -88 168 -128 245 -41 77 -89 169
-107 205 -19 36 -67 128 -108 205 -40 77 -86 165 -102 195 -15 30 -61 118
-101 195 -104 198 -244 465 -346 660 -26 50 -73 140 -105 200 -31 61 -91 175
-133 255 -41 80 -88 170 -105 200 -17 30 -62 118 -102 195 -40 77 -92 178
-117 225 -25 47 -72 137 -105 200 -34 63 -85 162 -116 220 l-55 105 -2101 3
c-1993 2 -2101 1 -2109 -15z m4031 -320 c8 -16 34 -64 57 -108 63 -119 251
-477 327 -625 27 -52 72 -138 100 -190 68 -129 285 -542 351 -670 15 -30 59
-113 96 -185 38 -71 86 -164 108 -205 106 -205 184 -354 233 -445 29 -55 79
-149 110 -210 32 -60 81 -155 110 -210 29 -55 80 -154 115 -220 34 -66 79
-151 100 -190 21 -38 76 -144 122 -235 l84 -165 -53 -100 c-29 -55 -62 -118
-73 -140 -10 -23 -22 -44 -26 -47 -3 -4 -63 44 -133 107 -374 338 -899 724
-1499 1105 l-163 103 32 14 c31 13 34 12 63 -16 40 -38 94 -52 200 -50 96 1
117 -7 161 -66 15 -19 31 -32 36 -29 5 3 19 -16 31 -41 17 -35 27 -45 41 -41
15 4 24 -7 44 -51 17 -38 36 -62 60 -76 19 -11 39 -32 45 -46 8 -24 10 -24 19
-8 7 12 17 16 31 11 17 -5 19 -3 13 15 -5 15 -2 21 9 21 9 0 16 6 16 14 0 7
10 17 23 20 l22 7 -22 11 c-14 7 -23 20 -23 33 0 35 -34 70 -104 106 -35 18
-62 38 -60 44 2 5 -15 19 -38 31 -27 13 -42 26 -40 36 3 17 -25 28 -77 28 -28
0 -33 3 -28 20 4 16 -5 22 -59 40 -38 13 -86 39 -115 63 -78 64 -109 81 -151
83 -21 1 -47 9 -58 19 -28 25 -92 34 -169 24 -36 -4 -110 -8 -163 -9 l-97 0
-110 74 c-130 86 -270 196 -271 212 0 12 49 48 119 85 51 27 64 49 30 49 -19
0 -16 5 22 39 24 21 52 53 62 71 l19 31 -35 -6 c-60 -11 -99 24 -61 56 56 46
174 265 174 322 0 36 3 39 45 58 27 12 42 25 39 32 -3 9 15 19 51 31 41 13 55
22 51 32 -7 18 28 40 79 49 28 5 51 19 77 46 28 29 45 39 69 39 32 0 32 0 13
21 -10 12 -17 30 -16 41 3 17 0 20 -17 15 -16 -4 -21 0 -21 14 0 10 -4 19 -9
19 -5 0 -12 12 -16 28 l-7 27 -15 -22 c-11 -17 -25 -23 -51 -23 -45 0 -87 -32
-137 -104 -25 -37 -42 -53 -48 -47 -7 7 -20 -5 -38 -33 -28 -45 -49 -65 -49
-47 0 6 -4 11 -10 11 -5 0 -17 -27 -27 -60 -14 -53 -19 -59 -38 -54 -18 4 -24
-3 -44 -53 -43 -106 -138 -244 -152 -221 -6 9 -17 4 -44 -22 l-35 -34 0 27 c0
56 -41 17 -69 -66 -11 -31 -24 -64 -29 -73 -7 -12 1 -34 30 -83 36 -61 37 -66
18 -69 -24 -4 -24 -10 -5 -36 19 -25 20 -42 2 -27 -15 12 -79 111 -72 111 2 0
15 -4 29 -10 43 -16 32 16 -22 71 l-48 47 28 6 c16 3 28 10 28 15 0 5 -46 24
-102 42 l-102 34 42 8 c23 4 42 12 42 16 0 16 -260 101 -308 101 l-46 0 42 28
c80 51 162 209 162 310 0 59 -24 143 -55 191 -27 44 -182 193 -247 240 -27 19
-46 36 -44 39 3 2 42 -1 87 -7 156 -21 211 -8 238 57 7 17 30 42 52 56 58 39
66 59 72 171 7 155 55 260 201 448 66 84 61 115 -15 102 -80 -14 -118 -63
-209 -276 -148 -345 -151 -353 -145 -385 3 -17 3 -33 0 -35 -3 -3 -37 -1 -77
4 -104 12 -257 -6 -373 -44 l-94 -31 -63 46 c-65 49 -91 56 -106 30 -7 -13
-13 -14 -30 -5 -32 17 -67 13 -88 -10 -10 -12 -39 -31 -64 -44 -41 -20 -48
-21 -83 -9 -101 35 -320 47 -434 24 -48 -10 -57 -10 -74 6 -10 9 -19 28 -19
40 0 26 -61 107 -247 325 -127 150 -174 194 -248 236 -50 28 -98 28 -103 0 -5
-25 13 -44 93 -96 131 -84 210 -185 270 -346 47 -124 82 -174 131 -189 12 -4
26 -18 32 -32 7 -13 31 -34 54 -45 24 -11 54 -26 68 -34 28 -17 77 -19 132 -6
l38 9 -41 -42 c-75 -76 -159 -191 -181 -246 -31 -79 -31 -222 1 -302 25 -64
101 -155 137 -164 13 -3 24 -9 24 -13 0 -3 -52 -24 -116 -46 -151 -51 -164
-61 -100 -70 l49 -8 -99 -34 c-54 -18 -103 -38 -108 -43 -5 -5 5 -12 25 -18
34 -8 34 -9 11 -21 -28 -15 -84 -90 -76 -102 3 -5 13 -5 24 1 31 17 31 12 1
-42 -17 -29 -37 -71 -46 -93 -15 -39 -15 -39 51 30 36 39 60 59 53 45 -14 -29
-108 -130 -120 -130 -18 0 -8 58 16 104 23 44 24 46 5 46 -11 0 -20 3 -20 6 0
11 61 113 71 119 5 4 3 15 -5 27 -9 12 -23 45 -32 74 -9 29 -27 62 -39 74
l-23 21 -6 -24 -6 -25 -32 29 c-24 23 -33 27 -39 17 -7 -10 -12 -8 -23 7 -8
11 -28 38 -46 60 -17 22 -50 79 -73 127 -32 69 -45 87 -58 83 -12 -4 -18 2
-23 22 -13 55 -29 84 -42 79 -8 -3 -29 14 -51 39 -20 24 -40 42 -44 39 -4 -2
-28 22 -53 55 -56 72 -94 101 -134 101 -16 0 -35 7 -42 15 -17 21 -30 19 -30
-5 0 -11 -4 -20 -10 -20 -5 0 -10 -9 -10 -21 0 -16 -4 -19 -20 -14 -16 5 -20
2 -20 -17 0 -13 -5 -29 -11 -35 -8 -8 -3 -13 18 -17 16 -4 41 -22 56 -41 18
-23 42 -38 70 -46 71 -19 87 -28 87 -48 0 -15 13 -23 56 -36 40 -12 54 -20 50
-30 -3 -10 9 -21 39 -34 40 -18 45 -24 45 -52 0 -61 93 -242 163 -316 30 -32
30 -33 12 -53 -11 -12 -31 -20 -52 -20 -18 0 -33 -5 -33 -11 0 -5 23 -35 51
-65 35 -36 46 -54 35 -54 -35 0 -13 -28 45 -56 59 -28 129 -93 129 -120 0 -17
-103 -97 -228 -179 l-104 -67 -203 4 c-186 3 -204 2 -223 -16 -12 -10 -39 -20
-62 -21 -44 -4 -72 -19 -149 -82 -28 -22 -72 -49 -98 -58 -68 -24 -78 -31 -75
-49 2 -12 -5 -16 -30 -17 -47 -1 -73 -12 -73 -28 0 -8 -19 -24 -42 -35 -23
-12 -40 -26 -38 -32 2 -6 -19 -22 -46 -35 -59 -27 -119 -82 -119 -109 0 -10
-10 -26 -22 -35 l-23 -15 23 -6 c12 -4 22 -13 22 -20 0 -8 7 -14 15 -14 10 0
15 -7 13 -17 -2 -12 3 -17 14 -15 10 1 19 -6 23 -19 7 -21 8 -21 20 9 8 17 27
38 45 47 21 11 39 34 58 73 19 41 32 56 44 54 13 -2 25 11 40 43 21 43 38 58
38 33 0 -6 13 8 30 30 47 65 67 74 166 73 105 -2 154 11 198 49 32 29 35 29
67 16 l32 -14 -44 -27 c-705 -443 -1264 -854 -1669 -1229 -133 -122 -114 -124
-189 24 -26 52 -62 121 -80 153 -21 39 -29 63 -23 70 5 7 42 75 82 152 40 77
97 186 126 242 29 56 88 169 130 250 42 81 80 153 84 158 4 6 49 91 100 190
52 99 111 214 133 255 22 41 61 118 88 170 27 52 54 102 59 110 5 8 15 29 23
45 7 17 32 64 54 105 22 41 73 138 113 215 40 77 95 183 123 235 28 52 71 136
97 185 26 50 73 140 104 200 32 61 91 173 131 250 40 77 88 169 107 205 19 36
64 121 100 190 36 69 92 175 123 235 32 61 69 133 83 160 13 28 33 65 44 83
l20 32 1908 0 1909 0 14 -27z m-857 -25 c4 -6 -1 -17 -12 -25 -10 -7 -39 -33
-63 -56 -38 -37 -43 -39 -36 -17 8 26 35 62 70 92 24 21 31 22 41 6z m-2068
-512 c-2 -10 -11 -1 -26 27 l-23 42 27 -26 c14 -15 24 -34 22 -43z m1763 -139
c-8 -8 -15 -7 -23 1 -9 9 -7 25 8 69 l19 58 3 -59 c2 -32 -2 -64 -7 -69z
m-1635 -1 c11 -20 13 -31 5 -39 -15 -15 -37 7 -44 46 -3 17 -8 41 -12 52 -6
17 -3 16 14 -5 12 -14 29 -38 37 -54z m1319 -75 c22 -10 45 -24 52 -32 10 -12
-7 -14 -113 -11 -131 3 -138 7 -80 43 39 24 89 24 141 0z m-1020 -20 c17 -7
14 -9 -15 -15 -19 -3 -55 -20 -79 -36 -50 -34 -63 -36 -86 -14 -14 14 -14 19
-2 37 8 12 25 25 38 28 33 10 120 9 144 0z m654 -20 c11 -7 10 -14 -6 -37 -41
-59 -39 -110 3 -120 28 -7 28 -9 5 -53 l-18 -33 -14 33 c-8 20 -14 65 -13 108
l0 74 -22 -26 c-26 -31 -46 -114 -38 -157 6 -28 54 -80 75 -80 5 0 9 -10 9
-22 1 -38 34 -99 90 -166 36 -44 56 -60 63 -53 7 7 -4 30 -37 73 l-48 63 49
-47 c27 -27 51 -48 55 -48 17 0 16 37 -3 69 l-21 36 25 -23 c32 -30 46 -12 21
26 l-17 27 21 -19 c18 -15 23 -16 27 -4 7 18 -23 91 -34 83 -5 -3 -7 3 -4 14
10 37 -16 30 -41 -12 -21 -35 -25 -38 -26 -19 0 12 9 41 20 62 27 53 13 50
-29 -6 -19 -24 -36 -43 -38 -40 -3 2 13 40 34 84 40 83 32 95 -21 31 -32 -37
-34 -24 -4 28 35 62 69 93 122 108 50 15 50 15 104 -17 80 -48 149 -114 157
-148 10 -46 -24 -108 -119 -211 -132 -144 -169 -233 -136 -326 l10 -28 -25 28
c-47 53 -29 139 55 252 57 77 77 127 85 215 4 41 13 91 21 112 15 43 3 59 -20
26 -13 -18 -16 -19 -16 -5 0 9 -4 17 -9 17 -15 0 -22 -30 -11 -50 7 -12 3 -39
-11 -91 -21 -75 -35 -108 -105 -239 l-41 -75 -75 90 c-42 50 -86 101 -97 115
l-20 25 -1 -65 c0 -63 -1 -66 -30 -77 -17 -6 -35 -23 -42 -40 -7 -15 -13 -30
-15 -32 -2 -3 -17 8 -33 24 l-30 29 -1 -40 c-1 -21 -4 -50 -8 -64 -7 -24 -8
-24 -20 13 -14 43 -25 40 -46 -10 -19 -46 -19 -116 0 -153 9 -17 17 -30 18
-30 1 0 0 27 -1 61 -5 74 11 99 27 43 6 -22 11 -44 11 -50 0 -13 60 -108 65
-103 2 2 -3 31 -11 64 -15 67 -19 195 -5 195 5 0 22 -37 37 -82 l28 -83 11 60
11 60 8 -40 c14 -76 19 -83 27 -35 4 25 8 70 9 100 l1 55 21 -40 c12 -22 27
-62 34 -90 7 -27 13 -43 13 -34 2 35 32 119 51 141 l21 23 -3 -136 -3 -135 36
14 c27 10 42 11 55 3 17 -9 17 -10 -6 -11 -42 0 -83 -34 -122 -101 -46 -77
-47 -65 -7 60 31 98 49 211 33 211 -5 0 -25 -46 -44 -102 l-35 -103 -6 105
c-8 133 -7 126 -18 114 -6 -5 -15 -66 -22 -135 l-13 -126 -27 56 c-30 60 -52
91 -64 91 -14 0 7 -74 36 -130 33 -64 42 -115 10 -65 -57 92 -127 127 -259
128 -81 0 -89 2 -60 11 28 9 37 21 57 71 32 78 40 204 17 270 -21 62 0 56 36
-11 32 -59 41 -47 36 49 -3 73 6 78 40 19 30 -51 29 -19 -2 82 l-24 78 23 -22
c14 -13 34 -41 45 -64 l21 -41 -3 42 c-2 35 2 45 25 63 49 38 54 118 14 197
-28 52 -35 46 -33 -30 0 -42 -5 -86 -13 -105 l-14 -33 -24 36 c-14 20 -23 38
-21 39 1 2 13 9 26 15 38 20 24 88 -27 129 -14 11 -14 14 -1 22 19 12 240 13
259 1z m-385 -75 c24 -10 42 -28 56 -56 l22 -42 -39 30 c-59 46 -81 49 -44 7
31 -36 63 -92 81 -143 l10 -27 -22 26 c-13 14 -35 41 -50 60 l-28 34 19 -45
c10 -25 22 -61 25 -80 7 -34 6 -33 -21 13 -25 45 -28 47 -34 25 -3 -13 -9 -61
-13 -107 -6 -71 -5 -85 10 -102 10 -11 19 -41 21 -71 l4 -53 -65 121 c-42 79
-76 158 -95 225 -18 62 -39 111 -52 123 l-21 21 6 -30 c3 -16 11 -59 17 -95
24 -153 29 -167 85 -244 103 -141 126 -221 78 -273 l-25 -28 8 25 c28 86 -10
173 -141 330 -103 123 -136 178 -136 226 0 37 22 59 115 114 66 39 73 41 132
36 34 -3 77 -12 97 -20z m891 -421 c-19 -50 -74 -139 -81 -132 -3 3 6 27 19
54 28 54 66 172 69 212 1 14 3 -1 5 -34 3 -38 -2 -74 -12 -100z m-31 98 c-12
-83 -42 -167 -75 -207 -36 -43 -85 -68 -117 -59 -46 12 -33 57 41 141 23 26
54 63 70 82 15 19 26 28 23 20 -11 -37 -15 -81 -7 -76 7 5 15 24 50 119 16 42
23 32 15 -20z m-1259 -158 c30 -53 39 -54 25 -4 -15 51 -13 67 6 43 14 -18 15
-17 9 18 l-6 38 71 -75 c40 -42 70 -83 70 -94 0 -35 -35 -61 -83 -61 -92 0
-167 96 -167 215 0 34 3 65 7 69 4 3 14 -18 24 -48 9 -30 29 -76 44 -101z
m-936 80 c49 -36 140 -125 128 -125 -4 0 -33 24 -65 53 -31 28 -85 65 -120 81
-37 18 -57 33 -50 37 16 10 53 -6 107 -46z m3375 47 c3 -5 -23 -22 -58 -39
-34 -17 -89 -55 -121 -84 -46 -42 -54 -47 -37 -22 24 34 115 108 167 136 35
19 42 20 49 9z m-1057 -205 c-47 -103 -137 -167 -232 -166 l-50 1 35 10 c118
33 196 98 241 202 20 45 25 50 27 30 2 -13 -8 -48 -21 -77z m-1080 -60 c-7
-74 -68 -128 -144 -126 l-38 1 35 10 c46 13 96 52 115 88 8 16 15 51 16 77 0
43 1 45 10 23 6 -14 9 -47 6 -73z m-83 -179 c-22 -17 -30 -28 -19 -24 90 35
110 38 203 34 80 -3 105 -8 141 -28 62 -35 65 -53 4 -30 -26 10 -73 21 -103
25 l-55 6 60 -30 c62 -31 118 -70 100 -71 -6 0 -30 11 -55 24 -25 13 -56 27
-70 31 -22 7 -23 6 -11 -9 12 -14 11 -16 -6 -16 -11 0 -32 9 -46 20 -14 11
-40 23 -59 26 l-33 5 24 -20 23 -21 -22 0 c-12 0 -33 9 -47 20 -14 11 -40 20
-57 20 l-31 -1 45 -24 c25 -13 59 -24 77 -25 93 -1 188 -36 307 -114 l82 -53
34 -87 c19 -47 37 -86 42 -86 12 0 21 48 15 79 -12 56 72 149 227 253 79 53
68 63 -27 24 -73 -30 -58 -4 18 30 l50 23 -36 0 c-21 1 -61 -11 -95 -29 -32
-16 -60 -28 -61 -26 -2 2 6 15 18 29 29 38 100 54 259 61 128 6 138 5 185 -17
59 -28 89 -57 59 -57 -11 -1 -30 -7 -43 -14 -23 -13 -22 -14 25 -21 75 -11
169 -53 216 -96 l43 -39 -60 35 c-80 47 -107 46 -122 -2 -6 -21 -15 -47 -19
-58 -7 -18 -6 -19 10 -5 10 8 22 25 27 38 l9 23 50 -27 c49 -26 63 -43 38 -45
-121 -6 -117 0 -198 -269 -81 -271 -132 -346 -306 -457 -17 -11 -15 -12 14
-12 18 -1 47 6 63 15 37 19 48 13 22 -13 -20 -20 -92 -45 -183 -63 -92 -18
-92 -20 -8 -102 114 -110 159 -219 125 -299 -8 -20 -40 -58 -72 -85 -167 -142
-204 -187 -241 -288 l-21 -58 -13 47 c-26 92 -86 166 -238 293 -94 78 -108
150 -53 260 31 61 102 143 150 173 41 26 21 44 -66 62 -105 21 -177 49 -181
69 -3 15 1 16 27 7 67 -23 67 -5 0 43 -90 64 -163 147 -187 211 -11 28 -32
108 -46 177 -31 142 -52 214 -75 250 l-15 25 22 -19 c29 -25 28 -9 -3 35 -14
21 -35 39 -50 41 l-25 5 25 -33 26 -34 -26 10 c-15 6 -41 11 -58 11 -31 2 -31
2 -4 6 23 4 26 7 16 19 -17 20 -30 18 -77 -17 -23 -17 -42 -26 -42 -20 0 11
56 54 109 83 40 22 39 38 -2 38 -21 0 -49 -11 -73 -28 -22 -16 -51 -35 -64
-42 -21 -10 -19 -7 10 24 36 38 139 96 171 96 28 0 34 22 11 40 -20 17 -20 18
-4 33 32 29 96 50 172 57 41 4 79 8 84 8 5 1 -9 -12 -30 -30z m1323 -319 c18
-6 51 -36 80 -72 48 -59 133 -181 133 -190 0 -2 -12 -2 -26 1 -19 3 -43 31
-96 111 -90 135 -96 141 -58 57 105 -234 304 -530 548 -811 154 -179 280 -291
438 -390 94 -59 226 -118 252 -112 18 4 9 10 -178 119 -190 111 -300 202 -468
388 -97 107 -268 328 -260 336 3 2 13 -5 23 -16 10 -11 23 -20 29 -20 6 -1 33
-32 60 -70 102 -145 296 -329 501 -476 79 -57 244 -163 290 -187 24 -12 35
-28 49 -74 31 -101 95 -257 119 -293 40 -59 208 -645 253 -885 21 -111 23
-266 5 -320 -7 -22 -23 -50 -34 -62 -25 -28 -14 -30 23 -3 16 11 39 41 52 68
33 66 32 224 -1 372 -34 150 -121 443 -180 600 -28 74 -48 136 -46 139 3 2 15
-5 28 -17 58 -55 42 3 -20 72 -102 114 -211 424 -269 768 l-18 104 -44 33
c-25 19 -43 28 -40 20 20 -55 130 -461 125 -465 -18 -18 -270 148 -423 280
-181 155 -309 306 -485 573 -150 226 -220 336 -215 340 1 2 56 -46 122 -107
124 -115 144 -128 584 -380 282 -161 661 -400 910 -573 388 -270 672 -497 979
-784 l84 -78 -18 -35 c-19 -35 -19 -35 -25 -10 l-7 25 -6 -25 c-3 -14 -8 -42
-11 -62 -2 -21 -12 -48 -20 -60 -15 -21 -16 -13 -17 117 -2 165 -13 128 -25
-80 -8 -133 -23 -186 -74 -252 -16 -21 -19 -21 -25 -5 -5 11 -9 13 -12 5 -2
-7 1 -21 7 -33 9 -16 7 -26 -9 -49 -11 -16 -25 -40 -31 -55 -5 -14 -13 -26
-18 -26 -15 0 -105 111 -168 207 -74 112 -139 257 -160 355 -12 55 -15 118
-12 252 2 127 0 180 -8 183 -17 6 -23 -42 -30 -228 -8 -189 4 -265 61 -401 41
-98 143 -250 228 -343 57 -63 63 -73 55 -97 -9 -25 -10 -26 -36 -12 -47 24
-59 16 -25 -17 l31 -32 -35 -66 c-19 -36 -39 -70 -43 -75 -5 -4 -28 10 -52 32
-24 22 -57 43 -73 47 -27 6 -24 0 38 -59 l67 -66 -22 -43 c-13 -23 -24 -44
-26 -46 -1 -3 -26 18 -55 46 -54 52 -127 89 -108 55 5 -9 39 -46 74 -81 59
-58 64 -66 55 -87 -6 -13 -14 -24 -17 -24 -13 1 -152 139 -201 200 -29 36 -73
78 -98 94 l-46 28 18 -28 c46 -72 132 -176 210 -254 47 -46 86 -90 86 -97 0
-17 -22 -63 -30 -63 -11 0 -189 205 -244 279 -25 35 -85 128 -132 207 -48 79
-88 144 -90 144 -6 0 24 -75 66 -165 56 -121 190 -310 313 -441 56 -60 66 -84
47 -114 -9 -12 -15 -9 -40 20 -26 30 -181 258 -289 425 -20 30 -30 40 -25 25
28 -104 132 -289 246 -442 65 -86 68 -93 57 -120 -13 -31 -10 -31 -61 -19 -35
8 -37 7 -28 -10 6 -10 19 -24 31 -32 l21 -15 -26 -41 -26 -41 -72 27 c-110 39
-240 98 -368 165 -252 134 -339 206 -414 346 -43 80 -45 87 -40 145 8 81 -35
368 -80 547 -69 272 -155 477 -389 925 -161 308 -252 462 -430 727 -106 160
-207 324 -249 405 -38 76 -74 143 -80 150 -16 20 -5 57 22 70 31 15 30 15 67
2z m-1543 -15 c9 -8 16 -24 16 -35 0 -37 -147 -312 -240 -449 -290 -428 -354
-538 -665 -1145 -84 -164 -165 -371 -217 -549 -60 -207 -115 -557 -103 -646 6
-42 2 -55 -35 -126 -50 -94 -128 -177 -229 -244 -146 -97 -550 -284 -659 -306
-24 -5 -30 0 -50 35 l-23 41 26 10 c14 6 30 10 35 10 10 0 50 40 50 50 0 18
-63 -6 -85 -32 -14 -17 -27 -29 -29 -27 -9 11 -56 97 -56 102 0 4 15 7 34 7
31 0 38 8 114 113 93 130 181 284 217 380 13 37 23 67 21 67 -3 0 -15 -17 -27
-37 -101 -169 -241 -373 -338 -493 l-19 -24 -20 24 -20 24 79 86 c133 145 259
315 319 431 41 78 94 209 85 209 -3 0 -16 -21 -30 -47 -36 -69 -143 -240 -189
-304 -45 -62 -198 -238 -248 -287 l-35 -33 -17 25 c-9 14 -16 31 -16 39 0 7
50 62 111 122 99 97 244 273 234 283 -11 12 -88 -51 -135 -110 -53 -66 -237
-245 -244 -237 -2 2 -8 13 -14 24 -9 18 1 32 84 114 52 52 94 97 94 102 0 19
-59 -19 -130 -84 l-74 -68 -18 23 c-9 13 -20 35 -23 51 -4 15 -10 27 -14 27
-9 0 -41 66 -41 86 0 8 7 17 15 20 25 10 17 21 -13 16 -25 -3 -31 1 -42 28
-13 31 -12 32 36 82 48 49 48 50 19 44 -16 -4 -41 -18 -56 -32 -31 -29 -35
-30 -49 -3 -10 19 -3 29 63 97 196 203 303 406 327 623 14 123 -8 395 -32 387
-5 -2 -10 -91 -11 -223 -2 -185 -5 -228 -21 -270 -34 -96 -106 -238 -160 -319
-53 -79 -180 -226 -195 -226 -13 0 -31 49 -21 55 6 4 10 16 10 28 0 20 -1 20
-13 3 -13 -17 -15 -16 -34 15 -67 114 -70 126 -65 247 2 61 -1 163 -8 225
l-12 112 78 74 c223 208 611 509 974 754 322 216 608 391 1109 678 137 79 180
109 266 190 56 53 112 102 125 109 20 11 20 8 -7 -32 -17 -23 -61 -92 -98
-153 -194 -317 -393 -559 -602 -732 -147 -123 -383 -276 -399 -260 -5 4 51
213 103 385 13 46 23 85 21 87 -2 2 -20 -11 -41 -28 -37 -32 -38 -34 -72 -202
-40 -201 -91 -382 -140 -500 -41 -99 -72 -151 -124 -209 -21 -22 -41 -54 -45
-70 l-7 -29 32 27 c17 15 33 25 35 23 3 -2 -11 -45 -30 -94 -57 -148 -133
-392 -171 -546 -62 -254 -67 -369 -20 -474 19 -41 32 -56 67 -73 l43 -22 -27
24 c-15 13 -34 40 -43 60 -20 50 -20 207 1 329 39 227 206 813 254 889 27 44
79 176 115 291 17 53 22 59 84 95 297 173 601 427 745 624 26 36 71 85 99 110
l51 45 -41 -60 c-92 -136 -195 -258 -332 -395 -165 -164 -211 -200 -418 -321
-81 -47 -149 -91 -151 -98 -8 -24 177 57 282 124 175 112 404 338 586 579 24
31 45 54 48 51 3 -3 -2 -13 -10 -22 -14 -16 -41 -113 -32 -113 2 0 16 18 30
40 20 30 25 48 22 77 -4 33 3 48 66 138 88 126 170 263 241 404 63 126 86 149
119 115z m-157 -131 c-54 -80 -79 -109 -99 -114 -26 -7 -27 -6 -17 14 39 75
147 207 169 207 14 0 3 -22 -53 -107z m1735 -318 c83 -257 126 -494 148 -800
20 -281 31 -390 44 -450 14 -57 13 -59 -2 -39 -89 114 -114 142 -167 184 -70
56 -97 70 -187 99 -85 28 -118 58 -118 107 0 38 39 104 62 104 7 0 6 -5 -2
-15 -10 -12 -10 -15 1 -15 7 0 34 22 60 49 29 31 45 41 41 28 -4 -17 -3 -18
17 -7 32 16 61 69 61 109 0 31 1 33 13 17 23 -32 40 22 47 149 0 6 4 4 9 -4
13 -21 22 2 24 64 1 30 5 55 10 55 11 0 8 25 -8 74 -8 24 -22 84 -30 132 -15
89 -59 235 -96 320 -25 59 -24 67 3 24 11 -19 43 -102 70 -185z m-163 33 c2
-88 -15 -77 -28 18 -10 68 -9 93 1 122 l13 37 6 -60 c4 -33 7 -86 8 -117z
m-1463 73 c-40 -127 -69 -354 -63 -491 9 -195 50 -301 160 -416 40 -43 67 -79
64 -88 -3 -7 -37 -35 -76 -61 -74 -49 -254 -237 -313 -327 -17 -27 -32 -47
-33 -45 -2 1 6 42 16 91 10 49 23 168 29 265 20 332 47 537 95 737 40 167 130
433 142 420 2 -2 -7 -40 -21 -85z m114 -23 c0 -46 3 -94 6 -108 5 -24 5 -24
-10 -6 -18 23 -24 196 -6 196 6 0 10 -34 10 -82z m1266 -174 c-3 -12 -13 -24
-21 -27 -12 -5 -14 2 -9 41 3 26 11 61 17 77 12 30 12 30 15 -19 2 -27 1 -60
-2 -72z m-1171 19 c19 -63 19 -69 -4 -49 -10 9 -21 36 -24 59 -3 24 -9 52 -13
62 -5 17 -4 17 10 -2 9 -13 23 -44 31 -70z m-314 0 c-70 -236 -126 -545 -146
-813 -8 -107 -22 -240 -31 -295 -41 -258 -143 -402 -316 -445 l-46 -12 -7
-116 c-20 -356 -93 -502 -295 -600 -47 -22 -102 -43 -123 -46 l-39 -5 6 47 c3
26 8 88 11 137 15 223 71 500 147 732 56 173 216 502 356 733 153 254 491 765
500 755 2 -1 -6 -34 -17 -72z m1956 -203 c188 -283 319 -494 396 -635 108
-200 204 -399 242 -500 83 -221 157 -580 174 -837 5 -75 12 -142 16 -148 8
-12 8 -12 -57 1 -77 16 -185 76 -243 136 -100 101 -142 225 -151 443 -7 183
-3 173 -71 193 -199 61 -292 232 -323 592 -26 311 -32 365 -55 499 -22 125
-101 468 -121 521 -15 40 44 -41 193 -265z m-569 138 c-6 -18 -17 -40 -26 -48
-13 -13 -14 -12 -7 15 5 25 31 65 41 65 2 0 -2 -15 -8 -32z m-1178 -41 c-30
-67 -34 -120 -20 -241 7 -62 11 -119 8 -126 -2 -7 -15 9 -28 36 -28 59 -40
209 -20 269 10 30 64 105 75 105 2 0 -5 -19 -15 -43z m210 -2 c0 -5 -5 -3 -10
5 -5 8 -10 20 -10 25 0 6 5 3 10 -5 5 -8 10 -19 10 -25z m-125 -42 c-4 -10
-10 -63 -12 -118 -5 -85 -1 -117 21 -209 14 -60 24 -111 22 -113 -9 -9 -54 93
-71 158 -28 107 -5 299 36 299 7 0 8 -7 4 -17z m94 -418 c18 -60 43 -132 56
-158 l23 -48 -25 23 c-32 30 -99 167 -118 243 -20 80 -19 208 2 276 l18 54 6
-140 c5 -117 11 -158 38 -250z m-1915 307 c-34 -31 -74 -74 -89 -95 -31 -43
-44 -43 -22 0 16 30 68 82 127 126 56 43 50 31 -16 -31z m4887 -31 c40 -38 59
-65 59 -81 0 -20 -7 -14 -43 35 -24 33 -65 75 -90 93 -26 18 -47 35 -47 38 0
14 70 -35 121 -85z m-2916 32 c-4 -10 -10 -69 -12 -130 -3 -62 -9 -113 -14
-113 -14 0 -33 75 -33 135 -1 73 18 125 46 125 15 0 18 -4 13 -17z m932 -28
c23 -41 31 -81 14 -70 -5 3 -23 30 -40 61 -24 44 -26 55 -13 52 9 -2 27 -21
39 -43z m-834 29 c4 -5 -49 -84 -71 -104 -11 -11 9 65 23 87 15 22 35 29 48
17z m79 -43 c-71 -69 -122 -186 -122 -279 0 -48 -17 -30 -25 27 -9 65 17 165
54 211 34 43 87 80 114 80 16 0 12 -7 -21 -39z m723 -57 c8 -17 15 -43 15 -56
-1 -23 -1 -23 -16 -3 -44 60 -92 141 -87 148 8 12 69 -50 88 -89z m-140 36
c112 -107 135 -271 54 -385 -12 -18 -18 -22 -14 -10 47 137 17 289 -80 403
-50 58 -25 53 40 -8z m-639 -440 c14 -16 62 -55 106 -86 74 -52 155 -138 180
-191 6 -13 19 -23 30 -23 23 0 23 -12 -1 -41 l-18 -23 -20 45 c-30 65 -74 115
-205 229 -65 56 -118 106 -118 111 0 18 22 8 46 -21z m-131 -70 c22 -10 56
-33 75 -49 34 -31 34 -31 7 -21 -16 5 -37 15 -48 21 -19 10 -19 9 -9 -10 16
-31 76 -67 174 -106 103 -40 140 -62 181 -105 30 -32 30 -32 5 -25 -14 4 -42
16 -62 26 -42 21 -110 28 -73 7 11 -6 43 -31 72 -55 105 -88 178 -101 269 -48
35 21 60 49 109 125 48 74 76 107 119 136 55 38 87 76 46 54 -27 -14 -70 -30
-70 -26 0 3 27 25 61 50 43 33 70 46 92 45 l32 0 -22 -16 c-33 -23 -28 -38 18
-53 52 -17 59 -30 16 -30 -97 0 -201 -76 -282 -205 -75 -120 -159 -165 -311
-165 -85 0 -182 24 -228 56 -11 8 -36 14 -55 14 l-34 0 23 -25 c13 -14 56 -42
95 -61 61 -31 65 -35 31 -28 -46 8 -43 -7 7 -33 164 -84 421 -42 624 104 79
56 81 46 9 -34 -85 -94 -223 -143 -406 -143 -227 0 -449 91 -583 240 -46 51
-109 168 -121 222 l-6 27 82 -44 c81 -42 183 -77 263 -90 l40 -6 -62 37 c-34
21 -91 60 -125 88 l-63 51 48 3 48 3 -38 28 c-21 15 -44 35 -52 44 -12 15 -10
17 25 17 22 0 57 -9 79 -20z m125 -583 c85 -42 157 -56 293 -57 48 0 87 -4 87
-9 0 -15 -139 -34 -202 -27 -76 8 -157 37 -212 76 -38 28 -73 69 -49 58 5 -1
42 -20 83 -41z m-3199 -307 c-7 -44 -7 -44 -20 -21 -8 14 -13 46 -12 73 1 49
-10 62 -28 31 -8 -14 -12 -11 -25 21 -9 21 -16 47 -16 58 0 10 -4 17 -9 13 -6
-3 -15 4 -21 15 -9 17 -2 28 57 87 l68 67 6 -150 c3 -82 3 -169 0 -194z m2393
268 c-39 -112 -57 -241 -61 -443 l-4 -200 -33 -35 c-18 -19 -40 -46 -49 -59
-15 -22 -15 -25 0 -36 13 -10 8 -14 -31 -29 -45 -17 -61 -36 -30 -36 37 0 0
-18 -47 -22 -34 -4 -58 -12 -72 -27 l-21 -21 31 0 c18 0 35 -4 38 -10 4 -6 -9
-10 -32 -10 -42 0 -123 -33 -123 -50 0 -5 16 -10 36 -10 21 0 33 -4 29 -10 -3
-5 -16 -10 -29 -10 -39 0 -111 -29 -149 -61 -49 -40 -47 -51 8 -35 52 16 57
13 14 -9 -42 -22 -107 -83 -124 -116 -8 -15 -14 -40 -14 -55 0 -16 -3 -45 -7
-64 -5 -29 -4 -33 7 -22 21 20 25 15 27 -35 1 -27 12 -68 25 -94 l24 -45 -25
-50 c-14 -27 -48 -74 -76 -105 -52 -56 -113 -156 -102 -166 3 -4 20 6 36 22
17 16 30 25 30 21 0 -15 -23 -51 -41 -63 -19 -14 -89 -106 -89 -118 0 -3 13 3
29 14 16 12 32 21 36 21 14 0 -10 -47 -45 -90 -41 -48 -64 -89 -85 -151 -18
-49 -5 -50 34 -2 41 50 41 20 1 -45 -35 -58 -60 -124 -60 -161 l1 -26 31 35
c19 20 28 26 24 15 -27 -63 -35 -94 -36 -132 0 -43 15 -66 26 -39 9 25 19 19
33 -19 7 -19 27 -47 45 -61 l33 -26 -24 -26 c-35 -38 -45 -91 -37 -197 6 -84
5 -97 -14 -127 -11 -18 -34 -41 -51 -51 l-29 -17 -40 72 c-22 40 -68 127 -102
193 -35 66 -87 165 -116 220 -29 55 -72 138 -96 185 -24 47 -73 139 -108 205
-75 142 -190 362 -259 497 -28 54 -56 106 -63 117 -7 11 -10 23 -7 26 3 3 79
32 168 65 243 89 528 244 645 351 40 37 67 73 96 133 45 91 53 97 150 121 110
27 223 101 287 187 69 95 108 228 127 438 l11 124 75 37 c56 27 90 52 130 97
30 33 56 61 57 61 1 1 -5 -18 -13 -41z m2443 -115 c41 -20 76 -39 78 -43 2 -3
9 -64 15 -134 20 -231 70 -372 168 -471 73 -75 149 -114 302 -157 42 -12 47
-17 85 -93 56 -113 121 -174 290 -275 179 -106 281 -156 444 -215 72 -26 131
-52 131 -57 0 -5 -16 -39 -36 -76 -41 -74 -168 -315 -212 -402 -15 -30 -61
-118 -102 -195 -40 -77 -88 -169 -107 -205 -60 -116 -179 -344 -210 -400 -16
-30 -49 -92 -73 -137 -24 -46 -48 -83 -52 -83 -5 0 -18 15 -29 33 -18 28 -20
43 -15 127 7 108 -4 163 -40 201 l-24 25 30 23 c17 12 38 39 48 59 9 20 18 39
19 41 2 3 10 -4 17 -15 14 -18 15 -18 22 11 7 28 -9 106 -31 160 -6 12 4 6 24
-15 l33 -35 -6 42 c-6 43 -28 96 -71 172 -14 24 -23 46 -21 48 2 3 20 -13 40
-34 29 -32 35 -35 36 -18 0 31 -43 115 -87 171 -22 27 -44 61 -48 74 l-7 23
36 -21 36 -21 -15 28 c-8 16 -34 48 -57 72 -24 24 -49 58 -56 74 l-14 30 36
-34 c20 -19 39 -32 42 -28 10 10 -57 119 -107 172 -26 28 -58 73 -71 100 l-25
50 23 44 c16 29 24 61 24 93 0 45 13 64 23 36 2 -7 8 -9 13 -5 5 4 1 28 -7 52
-9 25 -12 42 -8 39 20 -12 7 36 -20 72 -35 48 -54 65 -111 99 -25 15 -36 24
-25 20 11 -4 36 -9 55 -12 l35 -6 -23 25 c-29 32 -103 69 -153 75 -51 7 -61
23 -15 23 20 0 36 5 36 10 0 17 -81 50 -123 50 -23 0 -36 4 -32 10 3 6 20 10
38 10 l31 0 -21 21 c-14 15 -38 23 -72 27 -47 4 -84 22 -47 22 30 0 16 17 -29
34 -44 17 -60 36 -30 36 20 0 10 20 -41 79 l-38 44 3 136 c4 192 -18 365 -65
514 -3 10 16 -5 42 -33 30 -32 74 -64 121 -87z m-1569 61 c37 -7 92 -14 123
-14 79 0 179 -11 179 -20 0 -12 -149 -18 -227 -9 -79 9 -162 40 -190 71 l-18
21 33 -17 c19 -10 64 -24 100 -32z m1361 -89 c23 -83 9 -216 -32 -305 -30 -64
-102 -130 -195 -178 -44 -23 -84 -42 -89 -42 -4 1 15 13 42 27 77 40 195 164
235 248 29 60 34 81 34 145 1 43 -3 76 -9 76 -5 1 -18 -34 -27 -79 -42 -195
-138 -314 -333 -413 -67 -34 -81 -44 -55 -40 66 11 -7 -13 -145 -49 -379 -97
-621 -107 -950 -39 -372 78 -474 118 -632 251 -71 60 -87 105 -81 226 6 96 34
227 49 227 8 0 127 -84 139 -98 3 -3 -21 9 -52 26 -32 18 -58 28 -58 23 0 -14
70 -69 112 -88 20 -9 34 -21 32 -28 -5 -13 63 -45 95 -45 11 0 27 -8 37 -17
12 -13 37 -18 90 -20 40 -1 115 -13 166 -27 51 -13 127 -30 168 -37 155 -26
460 -9 659 37 35 8 66 13 68 10 5 -4 -141 -39 -322 -78 l-110 -23 85 -3 c157
-5 376 43 540 119 49 22 74 31 60 19 -42 -33 -159 -91 -255 -127 l-90 -34 59
7 c73 7 184 43 279 89 l72 36 -47 -42 c-27 -22 -48 -45 -48 -50 0 -14 91 24
141 58 60 41 126 108 161 162 15 25 28 42 28 39 0 -13 -34 -85 -52 -111 -11
-16 -18 -30 -15 -33 8 -8 74 75 97 120 20 41 20 41 21 11 0 -30 0 -30 19 10
10 22 22 49 26 60 6 18 8 16 13 -10 7 -35 16 -26 25 29 7 35 8 37 21 20 7 -11
18 -37 24 -59z m-1304 20 c65 -8 125 -15 132 -15 7 0 13 -5 13 -11 0 -17 -194
-5 -252 16 -51 18 -76 40 -36 31 12 -3 77 -13 143 -21z m-18 -66 l28 -12 -35
-8 c-53 -13 -137 4 -109 22 20 12 83 11 116 -2z m3898 -617 c-3 -3 -75 38 -75
43 0 2 3 10 6 18 4 12 13 6 39 -21 18 -20 32 -38 30 -40z m-7315 24 c0 -2 -8
-10 -17 -17 -16 -13 -17 -12 -4 4 13 16 21 21 21 13z m2470 -96 c0 -25 -124
-314 -128 -300 -8 24 32 164 68 239 38 79 60 101 60 61z m2406 -73 c32 -68 70
-205 62 -228 -6 -17 -118 252 -118 284 0 42 17 25 56 -56z m-2206 -48 c74 -48
90 -56 166 -85 63 -23 65 -24 59 -5 -5 18 -3 19 22 12 15 -5 66 -24 113 -44
190 -79 345 -110 550 -111 80 -1 181 2 225 6 l80 8 -45 -20 -45 -19 52 0 c29
-1 75 8 103 18 27 11 50 15 50 10 0 -5 15 -9 33 -9 l32 0 -25 -21 -25 -21 37
5 c40 6 98 31 168 73 l45 27 -35 -32 c-32 -29 -33 -31 -10 -25 53 14 100 45
144 96 44 50 46 51 46 25 0 -36 22 -35 107 3 74 34 86 37 57 15 -16 -12 -16
-14 -3 -15 25 0 97 56 114 90 15 29 32 42 22 18 -2 -7 -8 -24 -12 -38 -7 -23
-7 -24 10 -10 10 8 29 38 41 65 21 46 23 47 18 15 -14 -84 -45 -203 -66 -247
-33 -69 -148 -186 -242 -243 -97 -61 -222 -114 -258 -112 -15 1 -69 -7 -120
-18 -112 -24 -131 -25 -57 -1 70 22 173 81 162 92 -4 4 -62 -6 -128 -22 -147
-36 -262 -56 -380 -65 -78 -6 -86 -8 -60 -17 17 -5 101 -10 188 -11 116 -1
148 -3 120 -10 -21 -5 -95 -9 -165 -10 -71 -1 -128 -2 -128 -3 0 -1 21 -9 48
-17 l47 -15 -65 -2 c-304 -9 -584 56 -802 186 -67 39 -73 41 -64 20 7 -20 3
-19 -46 6 -84 43 -168 158 -202 279 -13 48 -36 224 -36 282 0 16 8 13 53 -24
28 -24 77 -60 107 -79z m-334 -115 c-14 -55 -35 -126 -45 -159 -18 -55 -20
-57 -20 -25 -1 55 25 165 55 230 15 33 29 59 31 56 2 -2 -7 -48 -21 -102z
m2659 -88 c21 -111 18 -146 -7 -71 -21 65 -68 249 -67 262 2 26 62 -127 74
-191z m69 -36 c21 -47 49 -102 63 -123 27 -38 25 -59 -4 -41 -24 15 -68 107
-83 172 -7 31 -15 64 -18 72 -14 41 10 -5 42 -80z m-2829 -7 c-28 -98 -81
-180 -103 -158 -3 2 6 22 20 42 14 21 40 73 59 115 38 87 49 88 24 1z m2591
-28 c6 -5 17 -27 24 -47 12 -40 19 -45 37 -27 7 7 12 1 16 -20 4 -17 12 -30
18 -29 7 2 16 -11 21 -29 10 -36 28 -53 28 -26 0 10 11 -8 24 -40 31 -74 36
-79 36 -36 1 33 2 32 29 -27 31 -66 51 -88 51 -56 0 15 5 19 20 15 26 -7 43
-67 45 -166 1 -97 15 -115 44 -58 27 52 33 52 15 2 -17 -50 -29 -161 -20 -195
7 -27 31 -35 39 -13 3 6 6 -30 6 -80 1 -91 9 -111 31 -75 10 17 8 -23 -6 -115
-5 -35 3 -41 25 -20 11 10 12 8 6 -13 -4 -14 -9 -52 -12 -85 -5 -54 -4 -59 11
-46 15 12 16 7 16 -58 0 -78 8 -102 51 -143 18 -18 26 -33 22 -47 -8 -31 15
-87 59 -142 44 -57 73 -115 83 -171 5 -27 12 -38 25 -38 14 0 19 -12 24 -54 6
-42 11 -54 21 -49 8 3 -10 -39 -40 -94 l-54 -98 -1912 0 -1912 0 -35 69 c-28
56 -33 74 -25 95 5 14 16 25 25 25 12 -1 18 12 23 52 5 44 10 54 26 54 12 0
19 7 19 20 0 38 42 130 85 186 48 61 70 114 62 145 -4 14 4 29 23 48 39 37 50
70 50 148 0 60 1 64 17 52 15 -13 16 -9 10 46 -3 33 -9 71 -13 85 -6 21 -4 23
7 13 20 -19 30 -16 25 10 -3 12 -8 49 -11 82 -4 45 -3 56 5 43 22 -35 30 -17
30 67 0 69 3 83 14 79 35 -13 44 81 20 196 l-6 25 19 -23 c10 -13 22 -20 26
-16 4 4 7 39 7 78 0 96 19 167 48 177 18 7 22 5 22 -14 0 -22 1 -22 20 3 11
14 25 41 31 60 17 51 29 60 29 20 0 -42 6 -36 36 37 13 32 24 50 24 40 0 -27
18 -11 25 23 4 17 13 30 21 30 8 0 17 13 21 30 4 24 8 28 19 19 11 -9 17 -4
29 24 8 20 15 41 15 46 0 5 7 11 15 15 12 4 15 -3 15 -37 0 -61 14 -77 30 -35
6 18 14 28 17 21 2 -6 -4 -24 -14 -39 -21 -33 -23 -109 -4 -177 18 -62 31 -69
31 -15 0 24 5 50 10 58 6 10 7 -9 4 -55 -5 -53 -1 -92 15 -158 29 -123 44
-142 35 -47 -3 41 -3 71 2 67 8 -8 17 -59 33 -197 10 -83 19 -113 32 -104 5 3
9 -2 9 -10 0 -27 32 -96 41 -90 5 3 9 -2 9 -12 0 -21 57 -121 74 -131 7 -5 21
-23 30 -40 9 -18 23 -33 31 -33 8 0 15 -4 15 -9 0 -18 53 -72 65 -67 8 3 19
-12 28 -35 8 -21 21 -39 29 -39 7 0 23 -16 36 -35 12 -20 33 -40 45 -46 12 -6
33 -26 46 -45 27 -40 38 -43 43 -11 3 20 5 19 22 -12 10 -19 33 -51 52 -70 18
-20 45 -51 60 -69 15 -18 33 -31 40 -28 7 3 16 -3 19 -13 8 -27 57 -69 62 -54
3 9 19 3 49 -17 113 -78 223 -80 333 -5 28 18 51 29 51 24 0 -20 21 -7 48 29
15 21 32 37 38 35 7 -2 23 11 38 29 14 18 40 49 57 68 16 19 41 49 54 65 19
23 24 26 25 13 0 -27 12 -22 39 17 13 19 32 37 43 41 11 3 32 25 46 48 15 23
33 41 39 39 6 -2 21 16 32 41 11 25 23 46 26 46 3 0 3 -4 0 -10 -14 -22 15 -8
32 16 10 14 35 44 56 67 21 23 47 51 57 62 23 25 70 114 70 132 0 8 4 12 10 8
11 -7 40 86 40 132 0 37 17 45 23 11 3 -22 4 -21 16 7 7 17 16 65 20 107 8 89
21 114 21 42 l1 -49 15 35 c20 46 28 119 17 149 -7 17 -3 52 13 120 12 53 30
144 40 204 16 102 18 106 33 85 8 -13 20 -27 27 -33z m-2777 -17 c-24 -46 -51
-78 -65 -78 -26 0 -15 25 28 62 51 44 52 45 37 16z m3254 -55 c5 -8 6 -17 2
-21 -11 -11 -36 12 -63 58 l-26 45 39 -34 c22 -19 44 -40 48 -48z m-3216 -71
c-17 -56 -34 -102 -39 -102 -13 0 -19 65 -8 94 10 28 71 118 76 113 1 -1 -11
-48 -29 -105z m3112 60 c45 -70 56 -108 42 -139 -7 -14 -14 -23 -17 -21 -2 3
-16 44 -29 91 -14 47 -28 93 -31 101 -12 30 4 16 35 -32z m-594 -419 c-44
-145 -96 -243 -170 -317 -72 -72 -202 -163 -289 -201 -84 -37 -239 -75 -331
-81 l-80 -5 43 20 c23 11 42 21 42 23 0 2 -66 3 -148 3 -140 1 -172 5 -417 51
l-30 6 44 -43 c35 -34 39 -41 20 -36 -13 4 -32 7 -41 7 -10 0 -17 3 -16 8 2 4
-7 23 -20 44 -16 26 -35 41 -68 52 l-46 16 14 -23 c8 -12 36 -37 62 -54 27
-18 46 -33 42 -33 -3 0 -42 13 -87 30 -159 58 -306 175 -371 296 -33 61 -58
172 -58 257 l0 61 33 -31 c68 -64 186 -145 272 -187 105 -51 192 -79 325 -102
192 -33 564 -4 774 61 27 8 51 13 53 11 7 -7 -145 -66 -229 -89 l-83 -22 75
-3 c96 -4 195 18 292 66 82 40 84 30 3 -24 -35 -24 -44 -34 -30 -34 37 0 140
57 200 111 48 44 55 48 36 21 -13 -18 -20 -36 -17 -39 12 -12 69 53 98 112 25
51 29 55 23 25 l-6 -35 17 30 c10 17 26 55 36 85 14 42 18 47 15 21 -4 -31 -3
-33 10 -15 8 10 17 30 20 44 4 14 8 19 10 13 3 -7 -7 -52 -22 -100z m-1582 16
c15 -7 27 -16 27 -20 0 -23 -143 34 -171 68 -11 12 73 -16 144 -48z m-189 26
c45 -35 161 -86 296 -131 88 -30 108 -40 86 -42 -84 -10 -298 75 -382 152 -53
49 -53 61 0 21z m-928 -350 c16 -39 18 -75 5 -75 -8 0 -41 82 -41 102 0 21 23
4 36 -27z m3504 27 c0 -20 -33 -102 -41 -102 -13 0 -11 36 5 75 13 31 36 48
36 27z m-3544 -77 c12 -30 22 -236 10 -224 -4 4 -36 222 -36 246 0 23 11 14
26 -22z m3574 29 c0 -20 -32 -250 -36 -253 -2 -2 -4 38 -4 90 0 96 13 169 30
169 6 0 10 -3 10 -6z m-3606 -156 c3 -13 7 -72 9 -133 l3 -110 -27 85 c-30 92
-35 130 -19 161 14 25 29 24 34 -3z m3648 -3 c13 -28 1 -96 -31 -180 l-18 -48
4 104 c5 119 9 149 23 149 6 0 16 -11 22 -25z m-2202 -174 c41 -6 111 -14 155
-17 58 -5 73 -9 55 -15 -51 -15 -175 -9 -249 11 -65 18 -171 64 -171 74 0 2
30 -6 68 -19 37 -13 101 -28 142 -34z m57 -74 c35 -1 63 -5 63 -9 0 -12 -68
-21 -107 -13 -33 6 -133 50 -133 59 0 1 26 -6 58 -17 31 -10 85 -20 119 -20z
m8 -87 c85 -40 168 -59 293 -69 l107 -9 -112 2 c-89 1 -109 -2 -101 -12 23
-28 119 -45 223 -40 78 4 91 3 60 -5 -22 -5 -79 -10 -127 -11 -47 0 -84 -4
-82 -8 7 -11 96 -38 128 -39 30 -1 29 -2 -19 -25 -41 -20 -61 -24 -107 -21
-96 8 -156 44 -283 168 -63 62 -115 116 -115 120 0 8 38 -6 135 -51z m-1727
-525 c-6 -14 -15 -25 -20 -25 -9 0 -4 14 15 38 15 19 18 14 5 -13z"/>
<path d="M4657 6673 c-4 -6 0 -19 8 -29 11 -15 14 -16 15 -4 0 21 -16 44 -23
33z"/>
<path d="M4595 6660 c-3 -5 -3 -15 1 -21 6 -11 23 6 24 24 0 10 -18 9 -25 -3z"/>
<path d="M4617 6618 c-2 -7 2 -26 11 -42 12 -25 16 -27 23 -13 6 10 5 25 -3
41 -12 28 -24 33 -31 14z"/>
<path d="M3868 6729 c-3 -8 5 -36 17 -62 22 -47 35 -46 35 3 0 27 -45 78 -52
59z"/>
<path d="M3960 6684 c1 -10 7 -30 15 -44 l14 -25 0 25 c0 14 -6 34 -14 44 -15
20 -15 20 -15 0z"/>
<path d="M3937 6599 c-4 -29 1 -58 16 -98 l22 -56 3 75 c4 103 -29 167 -41 79z"/>
<path d="M3656 5941 c-7 -11 39 -31 72 -31 27 1 27 1 -8 20 -39 21 -56 24 -64
11z"/>
<path d="M4877 5903 c-4 -3 -7 -12 -7 -20 0 -11 5 -11 20 -3 11 6 20 15 20 20
0 11 -23 13 -33 3z"/>
<path d="M4813 5879 c-7 -7 -13 -29 -13 -48 l1 -36 15 28 c19 34 16 75 -3 56z"/>
<path d="M3745 5869 c-4 -6 -4 -13 -1 -16 8 -8 36 5 36 17 0 13 -27 13 -35 -1z"/>
<path d="M4963 5868 c-6 -7 -14 -29 -18 -48 -7 -31 -6 -33 8 -22 16 13 33 69
24 78 -2 2 -9 -1 -14 -8z"/>
<path d="M3655 5855 c-19 -15 -19 -15 10 -13 17 2 29 7 28 13 -3 16 -18 16
-38 0z"/>
<path d="M3826 5853 c-16 -4 -11 -8 19 -19 44 -15 54 -12 35 11 -13 15 -20 16
-54 8z"/>
<path d="M3924 5816 c3 -13 17 -43 31 -67 l25 -44 -6 45 c-7 48 -28 90 -45 90
-7 0 -9 -10 -5 -24z"/>
<path d="M3672 5821 c-10 -6 -4 -10 19 -15 35 -7 45 -3 34 13 -7 13 -35 14
-53 2z"/>
<path d="M3760 5823 c0 -11 25 -51 51 -81 33 -38 37 -25 10 34 -11 24 -28 43
-40 47 -11 3 -21 3 -21 0z"/>
<path d="M4065 5801 c95 -55 154 -139 226 -319 23 -59 46 -111 51 -116 28 -32
-14 157 -53 241 -39 82 -113 162 -183 196 -73 36 -104 35 -41 -2z"/>
<path d="M4738 5783 c-24 -53 -25 -105 -5 -173 l14 -45 6 65 c9 86 14 200 9
200 -2 0 -13 -21 -24 -47z"/>
<path d="M4876 5777 c-21 -35 -26 -56 -25 -103 1 -53 15 -136 18 -107 0 6 10
65 21 129 11 65 18 120 16 122 -2 2 -16 -16 -30 -41z"/>
<path d="M4632 5782 c-56 -30 -114 -94 -144 -159 -24 -51 -30 -76 -30 -132 0
-38 5 -78 10 -88 12 -21 14 -18 32 67 16 75 55 151 123 241 72 96 74 105 9 71z"/>
<path d="M4966 5728 c-35 -51 -36 -56 -35 -138 l1 -85 14 45 c21 65 63 225 59
228 -1 1 -19 -21 -39 -50z"/>
<path d="M3876 5723 c11 -33 14 -73 11 -129 -8 -135 11 -125 42 23 10 47 -10
103 -47 136 l-21 19 15 -49z"/>
<path d="M4013 5688 c-1 -40 -8 -93 -17 -118 -9 -25 -15 -56 -15 -70 0 -18 11
-3 40 55 21 43 39 88 39 100 0 19 -35 105 -43 105 -2 0 -4 -33 -4 -72z"/>
<path d="M3744 5703 c24 -47 42 -132 45 -215 1 -10 5 -18 10 -18 15 0 24 155
11 181 -15 29 -61 79 -72 79 -5 0 -2 -12 6 -27z"/>
<path d="M4085 5593 c-11 -126 13 -262 63 -359 23 -44 98 -121 108 -111 4 4
-7 38 -24 76 -27 60 -74 234 -113 414 -7 31 -15 57 -20 57 -4 0 -10 -35 -14
-77z"/>
<path d="M4636 5650 c-4 -14 -26 -104 -50 -200 -36 -147 -60 -220 -103 -317
-12 -28 21 -11 59 30 50 52 84 124 103 214 15 71 18 230 5 273 l-7 25 -7 -25z"/>
<path d="M4805 5563 c-5 -40 -3 -64 10 -98 36 -93 48 -28 16 85 l-18 65 -8
-52z"/>
<path d="M4690 5551 c0 -32 8 -67 20 -92 20 -39 40 -45 40 -12 0 15 -47 142
-56 152 -2 2 -4 -19 -4 -48z"/>
<path d="M4881 5536 c-6 -15 -12 -38 -13 -50 -1 -23 20 -106 28 -106 15 0 20
53 9 115 -12 67 -13 69 -24 41z"/>
<path d="M3920 5471 c-15 -34 -24 -69 -22 -90 l4 -34 22 39 c25 42 40 112 28
130 -4 6 -18 -13 -32 -45z"/>
<path d="M4036 5501 c-9 -16 -27 -43 -41 -60 -19 -22 -25 -39 -23 -62 l3 -31
32 39 c20 26 35 59 41 92 5 28 8 51 6 51 -2 0 -10 -13 -18 -29z"/>
<path d="M3836 5458 c-17 -63 -15 -135 3 -124 16 11 32 111 24 151 l-9 40 -18
-67z"/>
<path d="M4678 5395 c-2 -22 4 -49 18 -76 20 -40 21 -41 27 -18 11 40 8 57
-17 93 l-24 36 -4 -35z"/>
<path d="M4775 5402 c-7 -32 12 -112 27 -112 4 0 8 7 8 15 0 29 17 15 26 -22
l10 -38 16 35 c13 32 13 39 -1 78 -14 39 -17 41 -25 22 -9 -20 -11 -20 -32 15
l-22 37 -7 -30z"/>
<path d="M4384 5406 c-9 -23 0 -51 16 -51 10 0 15 10 15 29 0 32 -21 47 -31
22z"/>
<path d="M3927 5315 c-16 -34 -17 -41 -3 -89 19 -61 48 -111 74 -125 18 -10
19 -8 10 37 -8 43 -3 152 9 191 2 9 -11 -2 -31 -24 l-35 -39 -3 43 -3 44 -18
-38z"/>
<path d="M3871 5307 c-6 -16 -11 -36 -11 -44 0 -30 39 -98 76 -133 41 -39 41
-37 1 38 -15 29 -34 78 -41 110 -13 56 -14 57 -25 29z"/>
<path d="M4395 5300 c-9 -14 4 -52 16 -45 12 8 12 42 0 50 -5 3 -12 1 -16 -5z"/>
<path d="M4745 5300 c-9 -14 -17 -150 -10 -150 3 0 11 12 20 28 l16 27 -5 -42
c-2 -24 -3 -43 -1 -43 12 0 45 74 45 101 0 46 -15 68 -25 37 -6 -21 -8 -20
-19 16 -9 29 -15 36 -21 26z"/>
<path d="M4658 5275 c-4 -16 -4 -53 -1 -82 4 -39 1 -59 -11 -78 -23 -35 -37
-31 -29 8 5 28 1 25 -36 -30 -23 -35 -54 -72 -68 -83 -35 -27 -25 -33 33 -19
130 31 142 40 169 129 l8 25 -23 -20 -22 -20 7 45 c10 66 9 81 -7 120 l-15 35
-5 -30z"/>
<path d="M4213 4843 c-7 -3 -13 -14 -13 -26 0 -21 0 -21 16 1 17 25 16 32 -3
25z"/>
<path d="M4500 4830 c6 -11 15 -18 21 -15 13 9 11 13 -12 25 -19 11 -20 10 -9
-10z"/>
<path d="M4142 4775 c-26 -33 -26 -31 -3 -74 l18 -33 13 46 c8 31 10 54 3 68
-9 21 -9 21 -31 -7z"/>
<path d="M4547 4778 c-4 -13 0 -44 7 -68 l14 -45 16 38 c17 39 13 61 -17 86
-12 9 -16 7 -20 -11z"/>
<path d="M4474 4767 c3 -10 6 -28 6 -40 1 -20 2 -20 11 -4 7 13 6 23 -7 40
-12 16 -15 17 -10 4z"/>
<path d="M4592 4667 c-27 -64 -33 -190 -7 -181 8 3 24 21 35 39 23 37 27 123
7 167 l-12 27 -23 -52z"/>
<path d="M4091 4679 c-24 -69 -9 -141 38 -183 l21 -19 0 75 c0 54 -5 86 -20
116 -11 23 -22 42 -24 42 -2 0 -9 -14 -15 -31z"/>
<path d="M4498 4658 c-8 -18 -19 -49 -23 -68 l-7 -35 31 29 c31 29 40 67 23
94 -6 8 -13 2 -24 -20z"/>
<path d="M4498 4533 c-38 -39 -47 -66 -28 -78 23 -14 74 58 68 96 -3 18 -8 16
-40 -18z"/>
<path d="M5185 5478 c18 -59 142 -254 190 -298 15 -14 45 -51 66 -82 22 -32
42 -58 44 -58 3 0 2 15 -2 33 -3 17 -29 64 -58 102 -29 39 -83 122 -120 185
-79 134 -73 126 -103 135 -22 6 -23 5 -17 -17z"/>
<path d="M5470 5396 c0 -8 107 -155 188 -259 60 -76 78 -93 80 -77 2 12 -2 28
-9 36 -6 8 -9 17 -5 21 10 10 56 -15 56 -31 0 -8 5 -18 11 -22 8 -5 10 0 6 17
-8 31 -274 305 -304 314 -13 3 -23 4 -23 1z"/>
<path d="M5769 5174 c69 -71 131 -136 139 -144 13 -13 14 -12 8 12 -6 25 -5
26 34 21 92 -13 76 5 -101 115 -96 59 -181 112 -189 116 -8 5 41 -49 109 -120z"/>
<path d="M5846 5023 c6 -25 93 -128 101 -119 2 1 0 16 -3 33 -4 19 -24 45 -55
72 -50 43 -50 43 -43 14z"/>
<path d="M5956 5024 c9 -41 28 -69 65 -95 34 -24 33 -27 14 38 -3 12 -24 36
-46 54 l-40 31 7 -28z"/>
<path d="M5530 5002 c0 -27 46 -119 56 -110 8 8 -19 96 -36 118 l-20 25 0 -33z"/>
<path d="M5794 4995 c4 -16 14 -37 22 -45 14 -13 15 -12 8 15 -3 17 -13 37
-21 45 -14 13 -15 12 -9 -15z"/>
<path d="M5870 4926 c0 -24 35 -78 79 -121 l51 -50 -16 45 c-10 29 -34 61 -65
89 -27 24 -49 41 -49 37z"/>
<path d="M6090 4926 c0 -1 5 -16 10 -33 8 -22 29 -40 83 -70 132 -74 192 -86
90 -18 -32 21 -84 58 -115 82 -52 39 -68 49 -68 39z"/>
<path d="M5990 4910 c0 -29 32 -80 69 -109 22 -18 41 -30 41 -28 0 3 -9 25
-19 49 -18 40 -91 111 -91 88z"/>
<path d="M5623 4895 c3 -11 9 -36 12 -55 4 -19 21 -53 37 -75 30 -39 30 -39
24 -10 -17 74 -28 102 -52 130 -20 23 -24 25 -21 10z"/>
<path d="M6140 4787 c0 -44 90 -113 203 -156 36 -14 36 4 0 23 -16 8 -67 43
-115 79 -49 36 -88 60 -88 54z"/>
<path d="M6040 4770 c0 -25 41 -88 72 -112 57 -42 60 -42 35 8 -24 46 -107
127 -107 104z"/>
<path d="M5800 4638 c76 -151 250 -447 250 -426 0 21 -39 127 -71 189 -42 85
-185 304 -217 332 -12 11 3 -26 38 -95z"/>
<path d="M6504 4654 c7 -115 33 -237 71 -344 29 -80 103 -228 135 -270 l20
-25 0 31 c0 17 -22 75 -49 130 -76 153 -112 286 -136 504 -4 32 -12 50 -27 59
l-21 13 7 -98z"/>
<path d="M6630 4624 c0 -46 18 -163 36 -239 20 -81 64 -205 74 -205 17 0 17
56 -1 107 -28 83 -59 237 -59 297 0 44 -4 57 -19 66 -29 15 -31 13 -31 -26z"/>
<path d="M6210 4635 c0 -3 11 -22 24 -43 18 -29 41 -46 95 -71 39 -18 76 -31
81 -29 6 2 -37 36 -95 75 -58 40 -105 70 -105 68z"/>
<path d="M6734 4548 c9 -73 46 -208 57 -208 18 0 20 47 5 110 -9 36 -16 78
-16 94 0 26 -22 55 -44 56 -5 0 -6 -24 -2 -52z"/>
<path d="M6911 4442 c-9 -22 -8 -38 7 -82 l19 -55 17 33 c9 18 15 41 12 50 -2
9 -7 29 -10 43 -8 38 -32 43 -45 11z"/>
<path d="M5870 4418 c0 -3 57 -120 126 -259 69 -140 123 -245 120 -234 -2 11
-8 45 -11 75 -5 36 -21 81 -47 130 -57 106 -188 306 -188 288z"/>
<path d="M6166 4357 c125 -68 219 -166 313 -325 32 -54 71 -104 102 -131 l50
-43 -16 38 c-85 204 -236 378 -390 450 -97 45 -132 52 -59 11z"/>
<path d="M7066 4338 c14 -47 21 -53 34 -29 10 19 9 25 -7 37 -26 20 -35 17
-27 -8z"/>
<path d="M6825 4272 c-8 -39 45 -155 57 -123 6 16 -31 132 -47 149 -2 2 -6
-10 -10 -26z"/>
<path d="M6980 4260 c-12 -29 -11 -37 12 -83 l26 -52 11 27 c8 22 6 38 -13 83
l-23 57 -13 -32z"/>
<path d="M6110 4265 c0 -19 77 -125 98 -134 35 -17 36 -14 2 33 -36 49 -100
115 -100 101z"/>
<path d="M7121 4240 c-8 -17 -9 -33 -3 -50 l10 -25 11 25 c8 17 9 33 3 50
l-10 25 -11 -25z"/>
<path d="M6080 4249 c-1 -35 47 -173 85 -244 52 -99 53 -84 6 65 -22 69 -90
203 -91 179z"/>
<path d="M6230 4173 c11 -21 27 -45 33 -53 17 -22 70 -54 65 -40 -6 18 -81
106 -102 120 -16 10 -16 8 4 -27z"/>
<path d="M6788 4118 c-4 -26 2 -44 31 -88 33 -51 36 -53 39 -29 2 16 -10 51
-31 89 l-35 61 -4 -33z"/>
<path d="M7167 4133 c-10 -9 -9 -41 2 -47 11 -7 21 28 12 43 -4 6 -10 8 -14 4z"/>
<path d="M6345 4091 c15 -30 60 -71 77 -71 6 0 -9 23 -32 50 -46 55 -69 66
-45 21z"/>
<path d="M7056 4093 c-7 -22 11 -73 26 -73 13 0 9 54 -6 75 -13 18 -14 18 -20
-2z"/>
<path d="M7415 4027 c-10 -103 23 -347 55 -406 16 -29 30 74 19 135 -6 32 -12
113 -13 179 -1 124 -5 138 -36 155 -17 9 -19 4 -25 -63z"/>
<path d="M6920 4075 c0 -9 12 -34 27 -56 37 -56 52 -34 16 24 -29 48 -43 58
-43 32z"/>
<path d="M6244 4051 c13 -24 34 -41 52 -41 13 0 -22 50 -42 59 -24 11 -24 11
-10 -18z"/>
<path d="M7210 4028 c0 -24 47 -97 63 -98 4 0 -7 26 -25 58 -40 72 -38 70 -38
40z"/>
<path d="M6344 4002 c13 -26 66 -71 66 -57 0 13 -33 55 -56 70 l-25 16 15 -29z"/>
<path d="M7120 3981 c0 -34 15 -49 24 -25 5 14 -9 54 -19 54 -3 0 -5 -13 -5
-29z"/>
<path d="M7540 3920 c0 -49 3 -90 8 -90 13 0 42 61 49 102 5 35 3 43 -18 59
-13 10 -27 19 -31 19 -5 0 -8 -40 -8 -90z"/>
<path d="M6780 3972 c0 -21 54 -92 63 -82 3 3 -11 27 -29 55 -27 39 -34 45
-34 27z"/>
<path d="M6241 3965 c-1 -30 30 -187 46 -230 25 -70 29 -30 8 81 -14 73 -53
182 -54 149z"/>
<path d="M6300 3956 c0 -19 53 -114 69 -124 21 -12 21 -12 7 20 -29 69 -38 84
-57 96 -10 7 -19 10 -19 8z"/>
<path d="M6440 3954 c0 -13 42 -65 61 -75 19 -10 20 -9 5 19 -14 26 -66 71
-66 56z"/>
<path d="M6900 3939 c0 -16 13 -37 35 -59 33 -32 35 -32 35 -12 0 12 -16 39
-35 60 -34 36 -34 37 -35 11z"/>
<path d="M7020 3938 c0 -8 9 -23 20 -33 16 -15 20 -15 20 -3 0 8 -9 23 -20 33
-16 15 -20 15 -20 3z"/>
<path d="M7180 3903 c0 -10 16 -35 37 -54 38 -36 36 -28 -9 35 -21 29 -28 34
-28 19z"/>
<path d="M7660 3858 l0 -61 35 39 34 39 -27 22 c-15 13 -30 23 -34 23 -5 0 -8
-28 -8 -62z"/>
<path d="M6166 3839 c4 -49 17 -104 41 -164 19 -49 37 -92 40 -95 3 -3 2 30
-2 74 -5 53 -19 106 -42 165 -19 47 -37 88 -39 90 -3 3 -2 -29 2 -70z"/>
<path d="M6410 3886 c0 -20 54 -117 70 -126 20 -11 20 -10 7 22 -30 69 -39 84
-58 96 -10 7 -19 10 -19 8z"/>
<path d="M6790 3837 c0 -13 21 -36 48 -51 26 -15 11 24 -18 44 -22 16 -30 18
-30 7z"/>
<path d="M7000 3833 c0 -22 18 -43 38 -43 20 0 10 30 -15 48 -21 13 -23 13
-23 -5z"/>
<path d="M6593 3813 c19 -35 91 -95 80 -66 -8 24 -32 51 -66 75 l-29 21 15
-30z"/>
<path d="M7780 3810 c0 -19 3 -21 12 -12 9 9 9 15 0 24 -9 9 -12 7 -12 -12z"/>
<path d="M7576 3775 c-15 -35 -16 -47 -5 -95 l12 -55 14 40 c10 28 11 55 5 95
l-8 55 -18 -40z"/>
<path d="M6530 3798 c0 -16 50 -116 64 -127 26 -22 27 -9 2 44 -19 42 -66 100
-66 83z"/>
<path d="M7170 3792 c0 -4 10 -13 23 -21 63 -39 69 -41 32 -8 -40 36 -55 44
-55 29z"/>
<path d="M6380 3774 c0 -28 27 -87 47 -99 27 -18 27 -20 8 36 -8 24 -24 50
-35 57 -11 7 -20 9 -20 6z"/>
<path d="M6890 3770 c0 -8 51 -40 65 -40 16 0 1 22 -25 35 -34 18 -40 18 -40
5z"/>
<path d="M7080 3765 c0 -12 28 -35 44 -35 13 0 5 24 -11 36 -23 18 -33 17 -33
-1z"/>
<path d="M7692 3755 c-24 -30 -25 -37 -16 -84 8 -41 17 -39 38 7 13 29 15 47
9 72 l-9 33 -22 -28z"/>
<path d="M7802 3738 c-14 -14 -16 -84 -3 -92 7 -5 25 94 18 101 -2 1 -9 -3
-15 -9z"/>
<path d="M7170 3710 c0 -9 41 -30 58 -30 9 1 -41 39 -50 40 -5 0 -8 -5 -8 -10z"/>
<path d="M6351 3635 c-1 -79 25 -215 41 -215 14 0 -4 192 -23 245 l-18 50 0
-80z"/>
<path d="M6497 3665 c13 -40 50 -82 61 -71 9 9 -38 95 -56 105 -21 11 -21 10
-5 -34z"/>
<path d="M7070 3689 c0 -12 49 -43 57 -36 3 4 1 13 -6 21 -14 17 -51 28 -51
15z"/>
<path d="M6890 3629 c0 -43 4 -58 16 -63 14 -5 15 0 9 41 -11 75 -24 87 -25
22z"/>
<path d="M6660 3656 c0 -17 32 -66 49 -76 16 -8 18 -7 14 9 -5 19 -63 81 -63
67z"/>
<path d="M7000 3589 c0 -49 5 -82 14 -95 8 -10 17 -17 19 -14 7 7 -16 167 -26
176 -4 4 -7 -26 -7 -67z"/>
<path d="M7170 3631 c0 -13 102 -93 109 -85 3 3 -15 25 -41 50 -45 42 -68 54
-68 35z"/>
<path d="M6441 3555 c36 -154 51 -305 48 -483 -4 -168 -4 -172 16 -166 11 4
24 10 29 15 15 13 9 280 -8 402 -9 59 -25 148 -36 196 -17 71 -25 90 -44 99
l-23 10 18 -73z"/>
<path d="M7616 3614 c-10 -27 -7 -63 10 -102 l16 -37 9 30 c6 21 4 44 -7 78
-17 52 -19 54 -28 31z"/>
<path d="M6617 3573 c8 -27 28 -61 44 -78 l29 -30 -20 60 c-12 35 -31 67 -45
78 l-24 17 16 -47z"/>
<path d="M7721 3593 c-10 -26 -11 -39 -1 -70 7 -21 16 -42 20 -46 15 -16 20
59 7 103 l-13 44 -13 -31z"/>
<path d="M7513 3570 c-7 -37 -5 -54 11 -93 16 -38 22 -44 27 -30 13 31 10 66
-10 118 l-19 50 -9 -45z"/>
<path d="M6287 3529 c-5 -43 -2 -69 12 -110 l20 -54 0 75 c-1 41 -6 91 -13
110 l-13 35 -6 -56z"/>
<path d="M7101 3563 c1 -36 34 -137 46 -140 7 -3 5 17 -8 57 -10 34 -19 70
-19 81 0 10 -4 19 -10 19 -5 0 -10 -8 -9 -17z"/>
<path d="M6534 3543 c36 -112 66 -340 66 -494 l0 -101 23 14 c19 13 22 26 25
87 3 86 -18 262 -48 388 -17 74 -26 95 -47 108 -24 16 -25 16 -19 -2z"/>
<path d="M7215 3507 c17 -84 62 -163 81 -144 2 2 -17 41 -42 87 -25 47 -43 72
-39 57z"/>
<path d="M6739 3447 c34 -96 42 -105 24 -25 -8 35 -22 71 -33 82 -15 15 -14 7
9 -57z"/>
<path d="M6901 3490 c1 -52 12 -81 35 -97 22 -14 22 -14 8 43 -7 32 -20 64
-28 73 -15 14 -16 12 -15 -19z"/>
<path d="M7680 3423 c0 -16 9 -41 20 -58 l20 -30 0 28 c0 26 -25 87 -35 87 -3
0 -5 -12 -5 -27z"/>
<path d="M7020 3428 c0 -46 39 -128 60 -128 14 0 -26 122 -43 132 -12 6 -17 5
-17 -4z"/>
<path d="M7775 3428 c-6 -15 22 -85 30 -76 2 2 -2 24 -9 48 -10 33 -16 40 -21
28z"/>
<path d="M6664 3410 c23 -97 36 -176 41 -245 9 -109 13 -117 35 -75 20 37 20
45 -7 185 -11 56 -24 92 -45 120 -24 33 -28 36 -24 15z"/>
<path d="M7590 3393 c0 -21 9 -51 20 -68 l20 -30 0 38 c0 34 -23 97 -35 97 -3
0 -5 -17 -5 -37z"/>
<path d="M6421 3313 c-1 -65 3 -114 9 -118 12 -7 12 154 0 200 -5 20 -8 -9 -9
-82z"/>
<path d="M7350 3405 c0 -13 48 -85 57 -85 5 0 -9 25 -44 75 -7 11 -13 15 -13
10z"/>
<path d="M6348 3323 c-3 -28 0 -80 7 -115 11 -60 12 -61 18 -29 10 49 7 110
-7 156 l-12 40 -6 -52z"/>
<path d="M7160 3356 c0 -2 11 -28 24 -58 23 -51 51 -86 61 -76 7 7 -65 138
-76 138 -5 0 -9 -2 -9 -4z"/>
<path d="M6940 3332 c0 -32 45 -133 66 -147 13 -8 24 -13 24 -9 0 23 -56 143
-71 152 -11 7 -19 9 -19 4z"/>
<path d="M7320 3257 c39 -70 64 -97 89 -97 19 0 17 6 -21 65 -27 40 -53 68
-70 74 l-28 10 30 -52z"/>
<path d="M7671 3275 c0 -29 34 -84 45 -73 8 9 -6 51 -26 78 l-20 25 1 -30z"/>
<path d="M7079 3237 c28 -72 71 -144 94 -154 24 -11 23 -8 -18 70 -24 45 -53
88 -65 96 -20 13 -20 13 -11 -12z"/>
<path d="M7440 3251 c0 -19 84 -117 106 -123 29 -8 26 -2 -34 69 -43 49 -72
72 -72 54z"/>
<path d="M7266 3148 c6 -11 78 -117 94 -139 3 -4 18 -11 35 -15 29 -7 29 -6
-24 62 -30 38 -63 77 -74 87 -22 20 -42 23 -31 5z"/>
<path d="M7044 3061 c24 -47 46 -76 69 -90 19 -12 37 -21 40 -21 11 0 -84 145
-106 162 -38 30 -38 20 -3 -51z"/>
<path d="M6393 3072 c-15 -63 -17 -192 -4 -192 14 0 23 74 19 165 l-3 80 -12
-53z"/>
<path d="M7430 3094 c0 -4 25 -35 56 -70 49 -57 60 -64 92 -64 l36 0 -54 56
c-56 57 -130 101 -130 78z"/>
<path d="M6736 3014 c-11 -15 -16 -39 -14 -62 l4 -37 22 45 c34 70 25 111 -12
54z"/>
<path d="M7188 3023 c32 -59 103 -141 131 -151 36 -13 39 -20 -38 81 -44 58
-114 111 -93 70z"/>
<path d="M6618 2909 c-21 -16 -28 -29 -28 -55 l0 -35 30 16 c26 13 30 21 30
55 0 22 -1 40 -2 40 -2 0 -15 -10 -30 -21z"/>
<path d="M6738 2876 c-18 -19 -28 -40 -28 -60 l0 -31 31 31 c23 23 30 38 27
60 l-3 29 -27 -29z"/>
<path d="M6476 2854 c-12 -32 -7 -64 12 -64 27 0 38 12 45 48 6 30 5 32 -22
32 -17 0 -31 -6 -35 -16z"/>
<path d="M6961 2807 c-3 -74 166 -408 212 -421 12 -3 25 -6 28 -6 4 0 -22 43
-56 95 -35 52 -81 132 -102 178 -21 45 -49 102 -60 127 -12 25 -22 37 -22 27z"/>
<path d="M6608 2796 c-21 -7 -28 -16 -28 -37 0 -23 3 -26 26 -21 28 5 37 20
32 49 -2 16 -7 17 -30 9z"/>
<path d="M6728 2753 c-21 -23 -49 -113 -34 -113 7 0 53 76 64 108 13 39 4 41
-30 5z"/>
<path d="M6483 2763 c-35 -7 -29 -33 7 -33 23 0 30 4 30 20 0 11 -3 19 -7 19
-5 -1 -18 -4 -30 -6z"/>
<path d="M6942 2658 c4 -35 19 -100 33 -144 20 -65 30 -83 47 -87 12 -4 24 -5
26 -3 4 5 -97 278 -107 289 -4 4 -4 -21 1 -55z"/>
<path d="M6595 2701 c-25 -5 -31 -12 -38 -51 -8 -39 -7 -46 13 -62 12 -10 25
-18 29 -18 8 0 36 129 30 134 -2 1 -17 0 -34 -3z"/>
<path d="M6450 2690 c0 -4 9 -15 21 -26 17 -16 22 -16 29 -4 15 23 12 27 -20
32 -16 3 -30 2 -30 -2z"/>
<path d="M6875 2667 c-4 -10 -5 -53 -1 -95 5 -61 10 -81 27 -94 22 -18 49 -24
49 -10 0 4 -15 54 -34 112 -24 77 -35 100 -41 87z"/>
<path d="M6787 2623 c-4 -3 -7 -26 -7 -49 0 -34 5 -46 21 -54 11 -7 22 -10 24
-8 2 2 -1 29 -7 61 -10 54 -16 65 -31 50z"/>
<path d="M6710 2591 c0 -10 7 -21 15 -25 11 -4 15 1 15 19 0 16 -6 25 -15 25
-8 0 -15 -9 -15 -19z"/>
<path d="M6700 2526 c0 -7 11 -21 25 -30 23 -15 25 -15 25 0 0 16 -26 43 -42
44 -5 0 -8 -6 -8 -14z"/>
<path d="M6787 2471 c2 -10 16 -24 29 -30 21 -9 24 -8 24 8 0 10 -11 23 -25
29 -34 15 -34 15 -28 -7z"/>
<path d="M6909 2411 c13 -24 71 -46 71 -27 0 7 -16 20 -35 29 -45 21 -48 21
-36 -2z"/>
<path d="M7032 2359 c5 -17 57 -43 66 -35 8 9 -19 33 -47 41 -17 5 -22 4 -19
-6z"/>
<path d="M3509 5478 c-11 -13 -52 -77 -91 -143 -39 -66 -90 -145 -113 -175
-23 -30 -44 -70 -47 -87 -2 -18 -3 -33 -1 -33 1 0 20 26 40 57 21 32 52 70 70
86 36 31 115 151 162 244 17 34 31 65 31 68 0 14 -33 3 -51 -17z"/>
<path d="M3235 5390 c-38 -16 -281 -273 -289 -305 l-6 -30 30 33 c16 17 37 32
46 32 16 0 16 -1 1 -18 -10 -10 -17 -29 -17 -43 1 -23 2 -23 30 11 28 34 218
292 234 318 8 14 0 15 -29 2z"/>
<path d="M3010 5252 c-41 -26 -123 -77 -182 -112 -60 -36 -108 -69 -108 -74 0
-5 25 -6 56 -3 l56 6 -6 -27 c-6 -25 -4 -25 30 13 20 22 82 86 137 143 56 56
99 102 97 102 -3 0 -39 -21 -80 -48z"/>
<path d="M2749 5017 c-31 -27 -66 -93 -56 -103 2 -2 19 10 39 26 31 26 68 94
56 105 -1 2 -19 -11 -39 -28z"/>
<path d="M2851 5008 c-36 -34 -69 -93 -58 -105 8 -8 77 61 91 92 26 54 16 58
-33 13z"/>
<path d="M2926 4986 c-9 -21 -15 -40 -12 -43 9 -9 38 46 33 64 -3 13 -8 8 -21
-21z"/>
<path d="M2620 4915 c-7 -8 -57 -45 -112 -82 -55 -37 -94 -69 -88 -71 12 -4
164 69 197 96 12 9 25 29 28 45 8 30 -5 36 -25 12z"/>
<path d="M2813 4877 c-54 -55 -89 -126 -54 -107 47 25 124 139 107 157 -1 1
-25 -21 -53 -50z"/>
<path d="M2708 4886 c-21 -19 -44 -52 -53 -75 l-14 -42 27 20 c54 41 59 47 71
84 7 21 11 40 9 42 -1 2 -20 -12 -40 -29z"/>
<path d="M3090 4873 c-21 -31 -54 -132 -46 -141 2 -1 15 15 29 37 23 35 53
128 45 137 -2 1 -15 -13 -28 -33z"/>
<path d="M2530 4745 c-41 -31 -94 -68 -117 -83 -96 -61 -12 -39 104 26 48 28
64 43 76 74 9 21 15 38 14 38 -1 0 -36 -25 -77 -55z"/>
<path d="M2653 4742 c-39 -35 -93 -122 -75 -122 19 0 102 88 116 123 8 20 12
37 8 37 -4 0 -26 -17 -49 -38z"/>
<path d="M2223 4733 c-15 -14 -23 -46 -36 -139 -22 -161 -56 -274 -123 -413
-35 -71 -54 -123 -52 -140 3 -25 5 -23 36 24 72 111 137 272 167 417 13 59 35
268 29 268 -1 0 -11 -8 -21 -17z"/>
<path d="M2958 4706 c-44 -53 -133 -188 -182 -277 -30 -54 -86 -197 -86 -218
0 -24 173 266 230 387 22 46 49 97 61 113 33 47 17 43 -23 -5z"/>
<path d="M2076 4638 c-7 -13 -16 -57 -19 -98 -3 -41 -18 -120 -33 -175 -32
-118 -40 -170 -26 -179 12 -7 43 71 72 178 16 61 32 157 44 269 3 33 -18 36
-38 5z"/>
<path d="M2465 4593 c-33 -24 -80 -56 -104 -71 -67 -39 -30 -39 53 1 54 26 79
44 96 71 12 21 21 39 19 41 -2 2 -31 -17 -64 -42z"/>
<path d="M1978 4586 c-11 -8 -18 -27 -18 -47 0 -19 -7 -62 -15 -96 -11 -45
-12 -70 -5 -89 6 -15 13 -25 15 -22 10 10 55 202 55 234 0 37 -6 40 -32 20z"/>
<path d="M1800 4456 c-23 -29 -30 -87 -13 -119 18 -35 26 -27 43 45 10 38 9
51 -3 68 -12 18 -16 19 -27 6z"/>
<path d="M2827 4363 c-46 -64 -107 -165 -150 -249 -25 -49 -37 -88 -41 -134
l-6 -65 27 60 c15 33 69 144 120 248 51 103 91 187 89 187 -3 0 -20 -21 -39
-47z"/>
<path d="M2556 4365 c-175 -72 -324 -232 -422 -453 l-23 -52 51 42 c31 27 67
72 96 122 92 159 193 264 323 336 65 36 55 38 -25 5z"/>
<path d="M1647 4342 c-15 -16 -15 -21 -3 -38 14 -18 15 -18 25 9 19 50 9 63
-22 29z"/>
<path d="M1878 4234 c-14 -36 -24 -74 -20 -86 4 -18 10 -12 33 33 29 55 35 85
21 105 -4 7 -18 -14 -34 -52z"/>
<path d="M1724 4232 c-19 -57 -20 -79 -4 -96 15 -15 52 83 45 116 -10 45 -20
40 -41 -20z"/>
<path d="M2593 4238 c-36 -39 -83 -102 -83 -112 0 -10 43 15 57 33 29 36 72
111 65 111 -5 0 -22 -15 -39 -32z"/>
<path d="M1598 4232 c-3 -10 -1 -29 4 -42 9 -23 10 -24 20 -7 11 20 3 67 -11
67 -5 0 -11 -8 -13 -18z"/>
<path d="M2617 4178 c-33 -65 -92 -246 -84 -254 2 -2 24 40 50 94 42 87 84
218 74 228 -2 3 -20 -28 -40 -68z"/>
<path d="M2466 4149 c-61 -68 -69 -84 -32 -67 24 10 102 115 93 124 -3 3 -30
-23 -61 -57z"/>
<path d="M1560 4116 c0 -27 16 -44 23 -24 5 18 -3 48 -14 48 -5 0 -9 -11 -9
-24z"/>
<path d="M1913 4083 c-34 -57 -40 -78 -23 -88 11 -7 70 82 70 105 0 41 -17 35
-47 -17z"/>
<path d="M1662 4095 c-22 -47 -11 -90 14 -57 15 19 18 51 6 70 -6 9 -12 5 -20
-13z"/>
<path d="M2357 4071 c-26 -28 -47 -53 -47 -56 0 -12 60 37 81 66 35 49 16 43
-34 -10z"/>
<path d="M1292 4083 c-21 -17 -23 -28 -27 -158 -3 -77 -9 -159 -14 -183 -9
-46 10 -152 23 -122 36 90 69 387 49 453 -8 28 -9 29 -31 10z"/>
<path d="M1794 4065 c-35 -49 -45 -73 -34 -80 13 -8 63 69 58 92 -3 15 -7 13
-24 -12z"/>
<path d="M2484 4068 c-18 -8 -44 -46 -44 -64 0 -14 42 21 55 46 9 17 14 30 13
29 -2 0 -13 -5 -24 -11z"/>
<path d="M1497 3994 c-16 -31 -26 -58 -24 -60 2 -2 18 16 36 41 22 31 29 50
24 60 -7 11 -16 1 -36 -41z"/>
<path d="M2377 4009 c-9 -5 -24 -24 -33 -40 l-15 -30 25 16 c26 17 62 65 49
65 -5 0 -16 -5 -26 -11z"/>
<path d="M1164 3992 c-18 -16 -20 -25 -14 -63 6 -41 34 -109 45 -109 3 0 5 43
5 95 0 52 -3 95 -7 95 -5 -1 -18 -9 -29 -18z"/>
<path d="M1605 3992 c-6 -9 -9 -28 -7 -41 4 -23 4 -23 18 -3 9 13 11 28 6 41
-7 19 -8 19 -17 3z"/>
<path d="M1926 3945 c-34 -55 -30 -66 8 -26 17 18 26 37 24 50 -2 18 -8 14
-32 -24z"/>
<path d="M1803 3923 c-50 -63 -41 -89 11 -34 18 19 26 37 24 52 -3 22 -5 21
-35 -18z"/>
<path d="M2269 3937 c-15 -12 -32 -33 -39 -47 -13 -24 -13 -24 10 -9 27 18 77
79 64 79 -5 -1 -21 -11 -35 -23z"/>
<path d="M2418 3946 c-10 -7 -29 -39 -43 -70 -24 -53 -24 -56 -5 -46 20 11 74
105 68 120 -2 5 -11 3 -20 -4z"/>
<path d="M2477 3924 c-19 -42 -47 -179 -46 -222 0 -46 39 62 55 156 18 99 15
119 -9 66z"/>
<path d="M1695 3930 c-26 -29 -13 -45 13 -17 13 14 19 28 14 31 -5 3 -17 -3
-27 -14z"/>
<path d="M1043 3903 c-30 -20 -29 -29 7 -69 l29 -34 7 35 c7 37 -1 85 -14 84
-4 0 -17 -7 -29 -16z"/>
<path d="M1522 3869 c-26 -39 -29 -48 -13 -40 28 15 65 71 55 81 -5 5 -23 -13
-42 -41z"/>
<path d="M2540 3823 c-24 -56 -35 -101 -40 -158 -7 -83 -5 -101 6 -69 4 10 19
51 34 89 23 60 50 215 37 215 -2 0 -19 -35 -37 -77z"/>
<path d="M2308 3876 c-20 -15 -72 -126 -59 -126 13 0 37 31 60 78 25 49 24 67
-1 48z"/>
<path d="M1718 3833 c-10 -11 -18 -28 -18 -39 0 -17 1 -17 21 3 12 11 19 28
17 38 -3 16 -4 16 -20 -2z"/>
<path d="M1923 3833 c-22 -15 -32 -43 -15 -43 18 0 44 27 41 42 -4 14 -6 14
-26 1z"/>
<path d="M953 3828 c-7 -8 -8 -19 -3 -28 8 -12 10 -12 15 2 10 26 2 43 -12 26z"/>
<path d="M2106 3790 c-27 -28 -45 -54 -42 -57 7 -8 73 53 88 80 19 36 0 27
-46 -23z"/>
<path d="M1137 3754 c-5 -52 13 -129 26 -108 14 23 18 86 7 118 -17 54 -27 51
-33 -10z"/>
<path d="M1529 3774 c-60 -49 -60 -51 -11 -23 45 24 68 46 60 55 -3 2 -25 -12
-49 -32z"/>
<path d="M2183 3778 c-18 -20 -63 -110 -63 -126 0 -17 47 42 71 91 30 59 27
73 -8 35z"/>
<path d="M1020 3743 c1 -26 9 -63 19 -82 l18 -34 6 33 c11 54 8 71 -18 102
l-25 30 0 -49z"/>
<path d="M1625 3760 c-10 -11 -16 -23 -12 -26 9 -9 47 16 47 31 0 21 -14 19
-35 -5z"/>
<path d="M1813 3768 c-13 -6 -23 -17 -23 -25 0 -11 5 -11 30 2 47 24 40 46 -7
23z"/>
<path d="M2337 3762 c-20 -22 -42 -81 -33 -89 11 -11 35 18 50 63 16 47 10 56
-17 26z"/>
<path d="M924 3737 c3 -10 6 -36 6 -58 0 -49 16 -51 22 -3 3 26 -1 43 -15 58
-16 18 -18 18 -13 3z"/>
<path d="M1530 3699 l-25 -20 25 6 c14 4 32 13 40 21 24 23 -10 17 -40 -7z"/>
<path d="M2233 3695 c-11 -8 -28 -36 -37 -61 l-16 -46 23 15 c17 11 66 107 54
107 -1 0 -12 -7 -24 -15z"/>
<path d="M2368 3654 c-12 -40 -18 -92 -17 -155 l1 -94 19 70 c13 49 18 96 16
155 l-2 85 -17 -61z"/>
<path d="M1638 3684 c-24 -12 -38 -34 -23 -34 16 0 55 26 55 37 0 16 2 16 -32
-3z"/>
<path d="M1832 3627 c-14 -59 -11 -80 9 -60 5 5 9 34 7 64 l-3 54 -13 -58z"/>
<path d="M2051 3635 c-38 -43 -44 -81 -8 -47 19 18 52 82 42 82 -2 0 -17 -16
-34 -35z"/>
<path d="M1726 3628 c-3 -18 -10 -58 -15 -88 -10 -61 -7 -71 13 -49 17 17 32
169 17 169 -5 0 -12 -15 -15 -32z"/>
<path d="M1503 3596 c-26 -24 -45 -47 -42 -50 8 -8 108 67 109 82 0 21 -17 13
-67 -32z"/>
<path d="M1100 3584 c-15 -48 -16 -104 -1 -104 3 0 14 21 24 46 14 38 15 50 4
76 l-12 30 -15 -48z"/>
<path d="M2293 3615 c-44 -31 -92 -320 -93 -553 l0 -142 26 -10 c14 -6 26 -10
27 -10 1 0 2 96 3 213 0 212 10 306 49 457 8 30 13 55 11 57 -1 1 -12 -4 -23
-12z"/>
<path d="M992 3571 c-11 -48 -7 -91 8 -91 15 0 32 69 25 100 -10 46 -21 44
-33 -9z"/>
<path d="M2108 3593 c-24 -26 -55 -99 -46 -109 10 -9 46 44 61 89 9 26 15 47
13 47 -1 0 -14 -12 -28 -27z"/>
<path d="M1197 3552 c-13 -35 -15 -59 -9 -87 l8 -39 21 49 c20 47 22 108 4
120 -4 2 -15 -17 -24 -43z"/>
<path d="M1627 3570 c-22 -62 -43 -150 -36 -150 12 0 25 28 39 87 11 50 9 98
-3 63z"/>
<path d="M2432 3532 c-7 -22 -12 -68 -11 -103 l1 -64 15 35 c20 43 29 132 16
154 -8 14 -12 10 -21 -22z"/>
<path d="M2178 3532 c-38 -45 -88 -323 -88 -488 0 -54 3 -64 23 -77 l24 -15 6
146 c7 149 25 289 53 396 8 32 13 60 11 63 -3 2 -16 -9 -29 -25z"/>
<path d="M1482 3445 c-41 -83 -43 -98 -10 -72 18 13 62 129 56 147 -2 6 -22
-28 -46 -75z"/>
<path d="M1828 3507 c-17 -12 -51 -127 -38 -127 17 0 41 41 49 86 5 27 8 50 7
51 -1 2 -10 -3 -18 -10z"/>
<path d="M2008 3503 c-15 -18 -44 -120 -36 -128 2 -3 16 29 31 70 14 41 25 75
23 75 -2 0 -10 -8 -18 -17z"/>
<path d="M1037 3424 c-10 -23 -17 -52 -15 -65 3 -23 4 -23 21 9 10 18 17 48
15 65 l-3 32 -18 -41z"/>
<path d="M957 3433 c-3 -5 -10 -26 -16 -48 l-10 -40 19 25 c11 14 20 35 20 48
0 22 -5 28 -13 15z"/>
<path d="M1127 3404 c-10 -22 -17 -56 -15 -75 l3 -33 18 27 c12 19 17 42 15
75 l-3 47 -18 -41z"/>
<path d="M1700 3425 c-16 -20 -51 -125 -41 -125 18 1 39 30 50 72 16 56 12 78
-9 53z"/>
<path d="M2048 3391 c-18 -25 -32 -65 -42 -120 -21 -111 -20 -163 2 -191 19
-23 19 -23 25 56 3 43 15 126 26 183 12 58 20 106 18 107 -1 1 -14 -14 -29
-35z"/>
<path d="M1371 3387 c-8 -12 -21 -32 -29 -45 -13 -19 -13 -22 0 -17 8 3 22 22
32 42 19 40 17 53 -3 20z"/>
<path d="M2306 3364 c-9 -72 -7 -174 4 -174 6 0 10 43 10 110 0 61 -2 110 -4
110 -2 0 -6 -21 -10 -46z"/>
<path d="M2371 3317 c-8 -36 -10 -78 -5 -115 l8 -57 13 63 c8 42 10 81 5 115
l-8 52 -13 -58z"/>
<path d="M1525 3290 c-33 -66 -35 -80 -9 -62 12 8 47 74 58 110 16 48 -15 19
-49 -48z"/>
<path d="M1785 3329 c-13 -6 -31 -38 -48 -82 -14 -39 -25 -72 -24 -73 1 -2 13
5 25 15 13 9 34 47 47 84 14 37 24 67 22 66 -1 0 -11 -5 -22 -10z"/>
<path d="M1420 3298 c-14 -5 -44 -38 -67 -74 -38 -57 -41 -64 -22 -64 25 0 57
34 93 99 15 28 26 51 24 50 -2 0 -14 -5 -28 -11z"/>
<path d="M950 3257 l-23 -42 22 20 c29 25 44 52 33 59 -5 3 -19 -14 -32 -37z"/>
<path d="M1047 3277 c-10 -16 -17 -40 -15 -55 l3 -27 18 27 c10 15 17 39 15
55 l-3 27 -18 -27z"/>
<path d="M1259 3229 c-40 -43 -92 -109 -85 -109 25 0 58 28 94 79 46 64 40 82
-9 30z"/>
<path d="M1647 3249 c-17 -10 -103 -169 -91 -169 24 0 51 33 81 97 19 41 33
76 31 78 -2 2 -11 -1 -21 -6z"/>
<path d="M1454 3152 c-18 -11 -135 -162 -127 -162 33 1 58 22 102 85 28 40 51
76 51 79 0 8 -13 7 -26 -2z"/>
<path d="M1685 3103 c-31 -32 -108 -153 -97 -153 4 0 21 9 39 20 22 13 44 43
68 90 37 74 35 87 -10 43z"/>
<path d="M2332 3013 c4 -127 21 -170 31 -77 5 51 -14 168 -30 184 -3 3 -3 -45
-1 -107z"/>
<path d="M1265 3086 c-16 -8 -55 -39 -85 -70 l-54 -56 36 0 c32 0 43 8 92 63
71 79 73 91 11 63z"/>
<path d="M1977 3031 c-2 -11 6 -41 18 -68 l23 -48 1 40 c1 23 -7 52 -18 68
-17 26 -19 27 -24 8z"/>
<path d="M1529 3025 c-14 -8 -51 -48 -83 -90 -57 -75 -57 -75 -24 -62 18 7 49
34 68 60 34 45 74 107 68 107 -2 -1 -15 -7 -29 -15z"/>
<path d="M1275 2930 c-32 -13 -122 -110 -103 -110 35 0 64 19 106 69 41 49 41
60 -3 41z"/>
<path d="M2090 2890 c0 -34 4 -42 30 -55 l30 -16 0 38 c0 32 -5 41 -30 55
l-30 17 0 -39z"/>
<path d="M1970 2879 c0 -26 8 -43 30 -64 l30 -29 0 35 c0 26 -8 43 -30 64
l-30 29 0 -35z"/>
<path d="M2210 2837 c0 -35 12 -47 49 -47 15 0 17 6 12 38 -5 31 -11 37 -34
40 -25 3 -27 1 -27 -31z"/>
<path d="M1727 2712 c-26 -60 -79 -157 -118 -217 -38 -59 -68 -109 -66 -112 2
-2 15 1 28 6 43 16 190 300 206 397 3 19 4 34 1 34 -2 0 -26 -49 -51 -108z"/>
<path d="M2102 2778 c2 -25 9 -33 32 -40 36 -9 35 -10 29 24 -3 18 -14 30 -35
37 -29 10 -29 10 -26 -21z"/>
<path d="M1980 2762 c0 -10 16 -42 36 -72 34 -53 35 -53 30 -21 -3 18 -6 41
-6 50 0 10 -13 27 -30 39 -28 21 -30 21 -30 4z"/>
<path d="M2220 2751 c0 -17 6 -21 35 -21 26 0 33 3 29 15 -4 8 -12 15 -19 15
-7 0 -20 3 -29 6 -12 4 -16 0 -16 -15z"/>
<path d="M1795 2709 c-2 -8 -27 -74 -55 -148 -28 -74 -49 -136 -47 -138 3 -2
15 1 29 6 20 7 29 24 47 83 24 82 45 198 37 206 -3 3 -8 -1 -11 -9z"/>
<path d="M2114 2683 c3 -15 8 -45 12 -66 8 -46 16 -52 44 -29 19 16 21 24 15
60 -7 46 -8 46 -48 56 -27 6 -28 5 -23 -21z"/>
<path d="M2259 2692 c-21 -2 -26 -7 -22 -23 7 -24 9 -24 39 0 27 22 22 28 -17
23z"/>
<path d="M1826 2583 c-15 -48 -30 -96 -32 -105 -6 -21 5 -23 40 -7 20 10 26
21 31 63 18 157 1 179 -39 49z"/>
<path d="M1923 2570 c-10 -63 -8 -68 21 -47 13 10 17 24 14 57 -5 65 -24 60
-35 -10z"/>
<path d="M2000 2585 c0 -27 9 -32 27 -14 14 14 6 39 -13 39 -8 0 -14 -10 -14
-25z"/>
<path d="M2007 2522 c-27 -29 -21 -45 8 -26 14 9 25 23 25 30 0 19 -14 17 -33
-4z"/>
<path d="M1922 2474 c-12 -8 -22 -22 -22 -30 0 -25 59 13 60 39 0 11 -14 8
-38 -9z"/>
<path d="M1793 2410 c-30 -18 -44 -40 -25 -40 14 0 72 40 72 50 0 15 -11 12
-47 -10z"/>
<path d="M1674 2360 c-24 -10 -40 -40 -21 -40 17 0 57 29 57 41 0 11 -8 11
-36 -1z"/>
<path d="M3356 4970 c-20 -50 -20 -56 -2 -41 15 13 32 69 23 77 -2 3 -12 -13
-21 -36z"/>
<path d="M3316 4830 c-14 -17 -26 -41 -26 -53 0 -20 0 -20 24 2 23 21 42 68
33 78 -3 2 -16 -10 -31 -27z"/>
<path d="M3293 4707 c-20 -27 -34 -61 -38 -92 l-7 -50 35 40 c26 29 37 53 42
89 3 26 4 50 2 52 -2 2 -17 -15 -34 -39z"/>
<path d="M3112 4518 c-90 -230 -134 -417 -135 -578 0 -58 5 -128 12 -156 15
-61 49 -99 80 -89 20 6 20 7 -6 29 -34 30 -38 80 -24 294 11 170 37 309 92
495 17 55 28 101 26 103 -2 3 -22 -42 -45 -98z"/>
<path d="M3267 4513 c-31 -51 -36 -71 -46 -168 -16 -158 -16 -157 23 -100 30
46 34 61 48 185 8 74 14 136 13 138 -2 2 -19 -23 -38 -55z"/>
<path d="M3146 4369 c-22 -73 -56 -316 -56 -397 0 -71 7 -112 20 -112 14 0 20
44 30 210 5 91 14 205 21 253 6 49 8 91 6 94 -3 3 -13 -19 -21 -48z"/>
<path d="M3229 4152 c-15 -20 -29 -53 -33 -72 l-7 -35 26 30 c25 30 49 88 43
104 -2 6 -15 -7 -29 -27z"/>
<path d="M3204 4001 c-12 -15 -27 -44 -32 -65 l-11 -39 25 24 c21 19 52 96 42
104 -2 1 -13 -10 -24 -24z"/>
<path d="M2898 3868 c-3 -46 -7 -73 -14 -97 -5 -18 -4 -23 7 -19 10 3 15 25
17 71 1 37 0 67 -3 67 -3 0 -6 -10 -7 -22z"/>
<path d="M3121 3809 c-65 -68 -70 -91 -11 -49 30 22 76 87 67 96 -3 3 -28 -18
-56 -47z"/>
<path d="M2811 3806 c-13 -54 -13 -56 -2 -56 10 0 27 87 18 96 -2 3 -10 -15
-16 -40z"/>
<path d="M2883 3719 c-7 -7 -13 -27 -13 -43 0 -28 1 -29 16 -14 9 8 14 27 12
42 -2 22 -5 25 -15 15z"/>
<path d="M2783 3658 c-14 -18 -24 -78 -14 -78 14 0 31 25 37 58 7 33 -5 43
-23 20z"/>
<path d="M2877 3622 c-9 -10 -20 -34 -23 -53 l-6 -34 20 20 c11 11 22 35 26
53 6 37 5 38 -17 14z"/>
<path d="M2760 3530 c-20 -20 -28 -60 -11 -60 13 0 27 22 35 53 8 32 3 34 -24
7z"/>
<path d="M2671 3480 c-8 -24 -7 -30 5 -30 9 0 14 10 14 30 0 17 -2 30 -4 30
-2 0 -9 -13 -15 -30z"/>
<path d="M2858 3494 c-9 -11 -20 -36 -23 -58 -7 -37 -7 -38 14 -26 27 14 33
29 29 70 -3 31 -4 32 -20 14z"/>
<path d="M2733 3412 c-6 -4 -16 -20 -22 -35 -9 -24 -8 -27 9 -27 21 0 25 4 34
43 6 27 1 33 -21 19z"/>
<path d="M2630 3364 c-13 -34 -13 -34 9 -34 19 0 31 18 31 46 0 24 -30 15 -40
-12z"/>
<path d="M2839 3367 c-9 -7 -21 -35 -27 -63 -31 -145 -94 -255 -203 -358 -75
-71 -73 -83 7 -37 143 82 230 223 249 404 7 68 3 76 -26 54z"/>
<path d="M2708 3302 c-11 -2 -24 -26 -38 -66 -11 -35 -35 -85 -53 -111 -68
-102 -89 -145 -69 -145 21 0 91 74 119 127 29 54 68 176 61 192 -2 4 -11 5
-20 3z"/>
<path d="M2576 3240 c-18 -45 -22 -115 -6 -105 15 9 58 86 65 118 6 24 4 27
-18 27 -20 0 -28 -8 -41 -40z"/>
<path d="M5366 4980 c6 -37 20 -58 30 -48 3 3 -4 23 -16 45 l-21 38 7 -35z"/>
<path d="M5396 4835 c3 -16 20 -43 36 -60 l29 -30 -7 30 c-3 17 -20 44 -36 60
l-29 30 7 -30z"/>
<path d="M5415 4715 c10 -68 14 -79 45 -115 29 -33 30 -34 30 -10 0 44 -20 94
-50 130 l-31 35 6 -40z"/>
<path d="M5585 4605 c2 -11 16 -57 29 -103 65 -217 95 -422 96 -645 0 -95 -1
-100 -28 -127 -27 -26 -28 -29 -10 -34 50 -12 74 29 90 152 19 147 -22 379
-108 609 -35 93 -80 191 -69 148z"/>
<path d="M5450 4432 c14 -120 20 -142 45 -181 16 -24 31 -38 33 -31 2 6 -1 62
-7 123 -10 93 -17 120 -42 164 -17 29 -33 55 -37 57 -4 2 0 -57 8 -132z"/>
<path d="M5575 4378 c21 -178 25 -222 25 -293 0 -80 16 -214 26 -224 13 -14
24 31 24 106 0 132 -47 434 -71 448 -5 4 -7 -12 -4 -37z"/>
<path d="M5485 4160 c8 -42 57 -120 63 -102 7 23 -7 58 -39 98 l-31 39 7 -35z"/>
<path d="M5513 4015 c3 -11 9 -32 12 -47 4 -14 18 -37 32 -50 22 -19 25 -20
20 -5 -4 10 -7 24 -7 31 0 7 -14 31 -31 52 -19 23 -29 31 -26 19z"/>
<path d="M5831 3858 c-1 -21 4 -38 9 -38 11 0 11 14 0 50 -7 22 -8 21 -9 -12z"/>
<path d="M5560 3854 c0 -12 53 -80 77 -98 37 -28 39 -12 2 33 -31 39 -79 78
-79 65z"/>
<path d="M5921 3793 c-1 -24 4 -43 9 -43 12 0 12 24 0 60 -7 21 -8 19 -9 -17z"/>
<path d="M5832 3785 c1 -16 9 -30 16 -33 18 -6 15 33 -4 49 -14 11 -15 9 -12
-16z"/>
<path d="M5840 3702 c0 -26 15 -52 30 -52 3 0 4 15 2 34 -5 43 -32 58 -32 18z"/>
<path d="M5937 3638 c6 -36 20 -58 35 -58 11 0 0 59 -14 78 -18 22 -28 13 -21
-20z"/>
<path d="M5850 3609 c0 -24 7 -42 22 -55 l21 -19 -6 39 c-4 22 -13 47 -22 55
-13 14 -15 12 -15 -20z"/>
<path d="M5960 3524 c0 -24 19 -54 34 -54 10 0 12 7 9 23 -11 41 -43 65 -43
31z"/>
<path d="M5860 3473 c0 -33 5 -44 27 -58 l26 -17 -6 38 c-4 21 -16 47 -27 58
l-20 20 0 -41z"/>
<path d="M6052 3486 c2 -16 9 -31 17 -34 10 -3 11 2 6 19 -12 39 -27 48 -23
15z"/>
<path d="M5988 3393 c5 -29 18 -43 39 -43 15 0 5 42 -15 58 -24 18 -30 15 -24
-15z"/>
<path d="M5874 3327 c15 -139 52 -229 130 -314 53 -59 116 -106 171 -129 30
-12 23 -2 -53 73 -102 101 -159 201 -187 327 -13 59 -22 78 -42 91 l-26 17 7
-65z"/>
<path d="M6074 3368 c3 -13 6 -26 6 -30 0 -12 40 -9 40 3 0 21 -21 49 -37 49
-11 0 -14 -6 -9 -22z"/>
<path d="M6010 3302 c0 -22 43 -160 61 -194 21 -42 103 -128 121 -128 18 0 -3
54 -41 105 -48 64 -61 88 -81 154 -12 37 -24 57 -39 62 -11 5 -21 5 -21 1z"/>
<path d="M6100 3268 c0 -19 65 -131 78 -136 15 -5 6 60 -15 111 -12 28 -22 37
-40 37 -12 0 -23 -6 -23 -12z"/>
<path d="M3930 4052 c0 -16 27 -45 39 -41 8 3 7 11 -4 27 -16 22 -35 30 -35
14z"/>
<path d="M3964 3974 c3 -9 6 -18 6 -20 0 -2 11 -4 24 -4 35 0 42 18 11 30 -37
14 -48 12 -41 -6z"/>
<path d="M780 3611 c0 -23 5 -41 10 -41 6 0 10 15 10 34 0 19 -4 38 -10 41 -6
4 -10 -10 -10 -34z"/>
<path d="M5376 2531 c-123 -166 -204 -237 -386 -338 -99 -55 -101 -64 -9 -37
155 45 325 181 417 335 24 39 55 120 48 126 -2 2 -33 -37 -70 -86z"/>
<path d="M5215 2459 c-135 -107 -298 -188 -482 -238 l-108 -30 71 0 c182 -2
413 111 537 262 21 26 37 47 35 46 -2 0 -25 -18 -53 -40z"/>
<path d="M3720 1492 c1 -15 37 -51 68 -66 37 -19 40 -12 9 26 -21 26 -77 55
-77 40z"/>
<path d="M497 3216 c-15 -7 -34 -22 -43 -34 -14 -21 -14 -22 13 -22 21 0 34 9
51 35 24 38 22 40 -21 21z"/>
<path d="M8210 3224 c0 -3 8 -19 17 -35 14 -23 24 -29 52 -29 l34 0 -22 24
c-22 23 -81 52 -81 40z"/>
<path d="M520 3113 c-24 -9 -80 -65 -74 -75 12 -18 61 -7 85 20 51 56 54 62
28 61 -13 0 -31 -3 -39 -6z"/>
<path d="M8191 3079 c36 -43 80 -62 100 -42 16 16 -54 73 -97 80 l-39 6 36
-44z"/>
<path d="M343 3088 c-31 -15 -29 -25 6 -33 22 -5 38 -1 60 16 17 13 31 24 31
26 0 8 -77 0 -97 -9z"/>
<path d="M8331 3074 c19 -20 30 -24 53 -20 16 4 32 8 35 11 11 12 -37 34 -73
35 l-39 0 24 -26z"/>
<path d="M357 2979 c-18 -10 -18 -11 0 -25 24 -18 39 -17 70 3 23 16 24 17 7
24 -27 11 -56 10 -77 -2z"/>
<path d="M8307 2983 c-16 -4 -15 -7 7 -24 28 -22 39 -23 68 -8 21 11 21 12 3
25 -19 14 -43 16 -78 7z"/>
<path d="M500 2945 c-37 -38 -37 -40 0 -50 21 -5 33 2 70 40 l44 45 -40 0
c-33 0 -46 -6 -74 -35z"/>
<path d="M8170 2935 c37 -38 49 -45 70 -40 37 10 37 12 0 50 -28 29 -41 35
-74 35 l-40 0 44 -45z"/>
<path d="M306 2905 c4 -8 12 -15 20 -15 20 0 17 7 -6 20 -16 9 -18 8 -14 -5z"/>
<path d="M8414 2905 c-16 -12 -16 -14 -3 -15 9 0 22 7 29 15 16 19 0 19 -26 0z"/>
<path d="M210 2874 c-18 -47 -11 -53 35 -32 29 13 29 16 11 41 -19 24 -35 21
-46 -9z"/>
<path d="M8485 2880 c-21 -23 -21 -25 27 -45 l37 -15 -13 37 c-15 45 -27 50
-51 23z"/>
<path d="M386 2857 c-16 -12 -16 -14 3 -31 19 -18 21 -17 52 5 29 20 30 23 13
30 -29 11 -48 10 -68 -4z"/>
<path d="M8285 2861 c-18 -7 -17 -10 15 -29 32 -20 35 -20 53 -5 17 16 17 18
1 30 -20 14 -39 15 -69 4z"/>
<path d="M245 2783 c-63 -32 -90 -51 -80 -61 9 -9 195 53 195 66 0 6 -33 32
-40 30 -3 0 -36 -16 -75 -35z"/>
<path d="M8398 2806 c-10 -7 -18 -16 -18 -18 0 -14 187 -75 197 -64 11 10 -10
25 -83 60 -42 20 -77 36 -78 36 0 0 -9 -7 -18 -14z"/>
<path d="M293 2633 c-26 -5 -29 -20 -9 -46 12 -16 19 -17 60 -6 51 13 50 12
36 40 -11 19 -35 22 -87 12z"/>
<path d="M8362 2620 c-17 -27 -18 -26 35 -39 42 -11 49 -10 60 5 20 28 15 41
-18 48 -50 10 -63 7 -77 -14z"/>
<path d="M119 2597 c14 -17 89 -52 96 -45 3 3 0 17 -6 32 -11 22 -18 26 -57
26 -36 0 -42 -3 -33 -13z"/>
<path d="M8531 2584 c-6 -15 -10 -29 -7 -31 9 -10 51 7 81 31 l30 25 -46 1
c-40 0 -47 -3 -58 -26z"/>
<path d="M410 2523 c-8 -3 -26 -10 -39 -15 -23 -8 -23 -9 -6 -28 22 -24 32
-25 80 -4 36 15 37 16 19 35 -17 19 -28 22 -54 12z"/>
<path d="M8276 2511 c-18 -19 -17 -20 19 -35 48 -21 58 -20 79 3 18 19 17 20
-19 35 -48 21 -58 20 -79 -3z"/>
<path d="M183 2456 c-46 -11 -83 -23 -83 -27 0 -12 86 -22 141 -17 64 6 76 18
47 45 l-23 20 -82 -21z"/>
<path d="M8457 2462 c-23 -25 -21 -39 6 -46 49 -13 177 -3 177 14 0 4 -30 15
-67 23 -38 9 -75 18 -84 22 -9 3 -22 -2 -32 -13z"/>
<path d="M513 2407 c-40 -21 -42 -23 -23 -35 27 -16 48 -15 89 7 l34 18 -24
16 c-29 21 -25 21 -76 -6z"/>
<path d="M8149 2411 l-22 -18 47 -18 c40 -16 50 -16 72 -4 l25 13 -43 23 c-53
27 -51 27 -79 4z"/>
<path d="M278 2316 c-54 -17 -98 -34 -98 -37 0 -3 25 -9 56 -12 45 -5 70 -1
121 18 85 32 87 34 66 51 -24 18 -33 17 -145 -20z"/>
<path d="M676 2325 l-40 -24 29 -11 c24 -9 36 -7 71 12 l43 22 -31 13 c-17 7
-31 13 -32 13 0 0 -19 -12 -40 -25z"/>
<path d="M7995 2336 l-30 -13 42 -21 c34 -18 47 -20 70 -11 29 11 28 14 -27
43 -20 11 -31 12 -55 2z"/>
<path d="M8317 2336 c-22 -17 -19 -19 68 -51 53 -20 76 -24 120 -19 30 4 55
10 55 13 0 5 -208 73 -220 71 -3 0 -13 -7 -23 -14z"/>
<path d="M823 2287 c-18 -12 -33 -25 -33 -28 0 -4 16 -9 35 -11 27 -3 46 3 78
24 23 15 35 28 26 28 -9 0 -29 2 -45 5 -20 3 -40 -3 -61 -18z"/>
<path d="M7826 2303 l-30 -5 44 -27 c31 -19 53 -26 76 -23 19 2 34 8 34 12 0
11 -68 50 -83 49 -7 -1 -25 -4 -41 -6z"/>
<path d="M463 2222 c-98 -44 -107 -52 -62 -52 42 0 122 21 172 46 37 18 37 18
15 31 -31 17 -31 17 -125 -25z"/>
<path d="M8152 2247 c-22 -13 -22 -13 15 -31 73 -35 226 -64 198 -37 -11 10
-172 81 -183 81 -4 -1 -17 -6 -30 -13z"/>
<path d="M630 2175 c-75 -39 -64 -43 44 -15 95 24 109 32 76 41 -42 12 -53 9
-120 -26z"/>
<path d="M7990 2201 c-33 -9 -19 -17 76 -41 108 -28 119 -24 44 15 -67 35 -78
38 -120 26z"/>
<path d="M992 2183 c-18 -8 -31 -18 -29 -20 8 -7 87 10 104 23 16 12 15 13
-12 13 -16 1 -45 -7 -63 -16z"/>
<path d="M7664 2191 c8 -12 105 -35 113 -27 9 8 -62 36 -92 36 -15 0 -24 -4
-21 -9z"/>
</g>
</svg>
